<svg width="83" height="76" viewBox="0 0 83 76" fill="none" xmlns="http://www.w3.org/2000/svg">
<path fill-rule="evenodd" clip-rule="evenodd" d="M38.044 67.7337V67.768L37.7527 67.7671C37.7045 67.7671 37.6589 67.7644 37.6132 67.7609L37.4667 67.753L37.4676 67.7381C36.9526 67.6284 36.6955 67.2178 36.6955 66.6326C36.6955 66.3562 36.7709 66.021 36.8315 65.7517C36.9113 65.4007 36.9569 65.0208 36.9999 64.6637C37.0736 64.0451 37.1315 63.4231 37.1851 62.8019C37.3219 61.2068 37.436 59.5827 37.436 57.9814C37.436 57.6752 37.3886 57.3401 37.3465 57.0365C37.3 56.711 37.2535 56.3565 37.2535 56.0275C37.2535 55.5265 37.4597 55.0983 37.8124 54.7465C38.1669 54.3946 38.5924 54.1884 39.0952 54.1884C39.3207 54.1884 39.5233 54.2613 39.6971 54.3911C40.6087 54.1858 41.5624 54.0375 42.496 54.0375C43.8673 54.0375 45.2729 54.3367 46.2758 55.3352C47.3155 56.3697 47.87 57.6164 47.87 59.0861C47.87 61.5323 46.5478 63.5845 44.8439 65.2384C43.4278 66.6142 41.6931 67.367 39.7392 67.617L39.7251 67.6188H39.7111C39.2189 67.632 38.7267 67.6679 38.2371 67.7162C38.1756 67.7223 38.1098 67.7276 38.044 67.7337ZM78.7492 63.9951C78.8089 63.4354 78.8677 62.8756 78.9194 62.3149C78.9414 62.0824 78.9756 61.8104 78.9756 61.5779C78.9756 60.9339 78.9747 60.2881 78.9598 59.6441C78.9563 59.4528 78.9616 59.0519 78.9212 58.8755C78.8563 58.6395 78.7624 58.307 78.7624 58.063C78.7624 57.584 78.9703 57.1751 79.3029 56.8373C79.6345 56.4995 80.0408 56.2854 80.5198 56.2854C81.299 56.2854 81.6218 56.8277 81.6218 57.5524C81.6218 57.7323 81.6043 57.9095 81.5701 58.078C81.3498 59.3186 81.1507 60.568 81.005 61.8192C80.9006 62.708 80.8173 63.6205 80.8173 64.5163C80.8173 64.7611 80.848 65.0243 80.8743 65.2674C80.9032 65.5323 80.9322 65.8113 80.9322 66.0772C80.9322 66.5291 80.7418 66.9134 80.4233 67.2292C80.1066 67.5442 79.7231 67.7372 79.273 67.7372C78.9563 67.7372 78.6747 67.632 78.4474 67.4108C78.2166 67.188 78.107 66.9063 78.107 66.5878C78.107 66.3044 78.2316 65.9035 78.3149 65.6324C78.4825 65.0936 78.6317 64.547 78.7492 63.9951ZM71.6634 64.3092C71.6563 64.5093 71.6528 64.7102 71.6528 64.9111C71.6528 65.1358 71.6721 65.37 71.6914 65.5938C71.7116 65.8333 71.7344 66.0842 71.7344 66.3238C71.7344 66.7519 71.5932 67.1318 71.3115 67.453C71.0106 67.7978 70.6105 67.9504 70.156 67.9504C69.8401 67.9504 69.5506 67.8557 69.3242 67.6302C69.1092 67.4144 69.004 67.138 69.004 66.8344C69.004 66.2527 69.1198 65.5595 69.2075 64.9778C69.2996 64.4487 69.419 63.8591 69.4646 63.3257C69.6111 61.6428 69.7103 59.9486 69.7103 58.2587C69.7103 58.0683 69.7164 57.6199 69.6594 57.4418L69.6541 57.4225C69.6023 57.212 69.5479 56.9654 69.5479 56.7478C69.5479 56.2942 69.7296 55.9046 70.0454 55.5818C70.3762 55.2448 70.7859 55.072 71.258 55.072C72.0064 55.072 72.3091 55.6019 72.3091 56.2881C72.3091 56.6346 72.2416 57.0084 72.1731 57.3383C72.1196 57.634 72.0485 57.9788 72.0275 58.285C71.9503 59.1089 71.9055 59.9486 71.8652 60.7803C72.6083 60.0977 73.3462 59.3993 74.0446 58.6755C74.3894 58.3184 74.9878 57.7024 75.2133 57.2602C75.4888 56.718 75.9065 56.2337 76.5312 56.1433C76.6443 56.124 76.7742 56.1231 76.89 56.1231C77.2129 56.1231 77.5217 56.1951 77.8034 56.3565L77.8104 56.36L77.8174 56.3653C78.1298 56.5697 78.3193 56.8628 78.3193 57.2418C78.3193 57.7314 77.9534 58.1157 77.5823 58.3868C76.8655 58.9115 76.182 59.5116 75.5301 60.1126C74.6886 60.8874 73.8735 61.6955 73.0742 62.5141C73.6656 62.8501 74.2587 63.1835 74.8518 63.5178C75.43 63.8425 76.3399 64.3566 76.9865 64.5067C77.7104 64.6742 78.0754 65.1761 78.0754 65.9123C78.0754 66.2755 77.9578 66.6194 77.7718 66.9283C77.5393 67.3152 77.1918 67.5749 76.7277 67.5749C76.3215 67.5749 75.9249 67.2362 75.6564 66.9643C75.2195 66.522 74.6132 66.1105 74.0946 65.7701C73.3076 65.2524 72.4872 64.7716 71.6634 64.3092ZM62.5612 64.3092C62.5542 64.5093 62.5507 64.7102 62.5507 64.9111C62.5507 65.1358 62.57 65.37 62.5893 65.5938C62.6095 65.8333 62.6323 66.0842 62.6323 66.3238C62.6323 66.7519 62.491 67.1318 62.2094 67.453C61.9075 67.7978 61.5083 67.9504 61.0538 67.9504C60.7371 67.9504 60.4476 67.8557 60.2221 67.6302C60.0062 67.4144 59.9018 67.138 59.9018 66.8344C59.9018 66.2527 60.0176 65.5595 60.1054 64.9778C60.1975 64.4487 60.3159 63.8591 60.3624 63.3257C60.509 61.6428 60.6081 59.9486 60.6081 58.2587C60.6081 58.0683 60.6143 57.6199 60.5572 57.4418L60.5537 57.4322L60.552 57.4225C60.5002 57.212 60.4458 56.9654 60.4458 56.7478C60.4458 56.2942 60.6274 55.9046 60.9433 55.5818C61.2741 55.2448 61.6829 55.072 62.1558 55.072C62.9043 55.072 63.207 55.6019 63.207 56.2881C63.207 56.6346 63.1394 57.0084 63.0701 57.3383C63.0175 57.634 62.9455 57.9788 62.9253 58.285C62.8481 59.1089 62.8034 59.9486 62.763 60.7803C63.5053 60.0977 64.2441 59.3993 64.9416 58.6755C65.2864 58.3184 65.8857 57.7024 66.1112 57.2602C66.3867 56.718 66.8034 56.2337 67.4281 56.1433C67.5422 56.124 67.6721 56.1231 67.787 56.1231C68.1108 56.1231 68.4196 56.1951 68.7004 56.3565L68.7074 56.36L68.7144 56.3653C69.0276 56.5697 69.2172 56.8628 69.2172 57.2418C69.2172 57.7314 68.8504 58.1157 68.4801 58.3868C67.7633 58.9115 67.0798 59.5116 66.427 60.1126C65.5856 60.8874 64.7705 61.6955 63.9721 62.5141C64.5634 62.8501 65.1566 63.1835 65.7497 63.5178C66.3279 63.8425 67.2377 64.3566 67.8844 64.5067C68.6074 64.6742 68.9732 65.1761 68.9732 65.9123C68.9732 66.2755 68.8557 66.6194 68.6697 66.9283C68.4363 67.3152 68.0897 67.5749 67.6247 67.5749C67.2193 67.5749 66.8227 67.2362 66.5534 66.9643C66.1173 66.522 65.5101 66.1105 64.9925 65.7701C64.2055 65.2524 63.3842 64.7716 62.5612 64.3092ZM60.2019 61.348C60.2019 63.0844 59.5842 64.5891 58.4023 65.8587C57.1398 67.2161 55.5683 67.9022 53.7144 67.9022C52.2132 67.9022 50.9181 67.3898 49.8933 66.2851C48.9396 65.2568 48.4728 64.0311 48.4728 62.629C48.4728 60.8883 49.0756 59.3686 50.2539 58.0858C51.5121 56.7162 53.0879 56.0415 54.9454 56.0415C56.4563 56.0415 57.7539 56.5601 58.7814 57.6735C59.7369 58.7088 60.2019 59.9398 60.2019 61.348ZM35.4066 60.647C35.4066 61.0848 35.1802 61.4173 34.8126 61.6428L34.8038 61.6481C34.4853 61.8288 34.1273 61.8973 33.7632 61.8973C33.45 61.8973 33.1297 61.8762 32.8165 61.8552C32.5155 61.8341 32.2067 61.813 31.9049 61.813C30.7511 61.813 29.5815 61.9218 28.4628 62.2114C28.2338 62.2702 27.9873 62.3184 27.7504 62.3184C27.3205 62.3184 26.9397 62.1658 26.6098 61.892C26.2728 61.6112 26.0746 61.2462 26.0746 60.804C26.0746 60.3996 26.2404 60.0626 26.5659 59.8222C26.873 59.5959 27.2213 59.4871 27.6021 59.4871C27.9864 59.4871 28.4084 59.5494 28.7884 59.6081C29.1367 59.6617 29.5333 59.7222 29.8869 59.7222C30.7423 59.7222 31.6259 59.6178 32.4313 59.3142C32.777 59.1844 33.1754 59.0668 33.5474 59.0668C33.9922 59.0668 34.3932 59.2221 34.7555 59.4862C35.1337 59.7757 35.4066 60.1565 35.4066 60.647ZM23.5564 55.795C23.1388 55.795 22.7685 55.6528 22.4658 55.3642C22.1552 55.0676 22.0227 54.6894 22.078 54.2727C22.1192 53.8559 22.3 53.4935 22.5878 53.1891C22.8791 52.8794 23.2414 52.689 23.6714 52.689C24.1109 52.689 24.4803 52.868 24.7734 53.1935C25.0673 53.519 25.2024 53.9164 25.1471 54.3446C25.1077 54.7491 24.9129 55.0887 24.6154 55.3624C24.318 55.6353 23.9627 55.795 23.5564 55.795ZM21.9306 63.9951C21.9903 63.4354 22.0499 62.8756 22.1017 62.3149C22.1236 62.0824 22.1578 61.8104 22.1578 61.5779C22.1578 60.9339 22.157 60.2881 22.1421 59.6441C22.1377 59.4528 22.1438 59.0519 22.1034 58.8755C22.0376 58.6395 21.9446 58.307 21.9446 58.063C21.9446 57.584 22.1526 57.1751 22.4851 56.8373C22.8168 56.4995 23.223 56.2854 23.7021 56.2854C24.4812 56.2854 24.8041 56.8277 24.8041 57.5524C24.8041 57.7323 24.7865 57.9095 24.7523 58.078C24.5321 59.3186 24.3329 60.568 24.1864 61.8192C24.0829 62.708 23.9995 63.6205 23.9995 64.5163C23.9995 64.7611 24.0302 65.0243 24.0565 65.2674C24.0855 65.5323 24.1144 65.8113 24.1144 66.0772C24.1144 66.5291 23.924 66.9134 23.6056 67.2292C23.2888 67.5442 22.9054 67.7372 22.4553 67.7372C22.1385 67.7372 21.8569 67.632 21.6288 67.4108C21.3989 67.188 21.2883 66.9063 21.2883 66.5878C21.2883 66.3044 21.4138 65.9035 21.4972 65.6324C21.6647 65.0936 21.813 64.547 21.9306 63.9951ZM14.8456 64.3092C14.8386 64.5093 14.8351 64.7102 14.8351 64.9111C14.8351 65.1358 14.8544 65.37 14.8737 65.5938C14.8939 65.8333 14.9167 66.0842 14.9167 66.3238C14.9167 66.7519 14.7754 67.1318 14.4938 67.453C14.1919 67.7978 13.7927 67.9504 13.3382 67.9504C13.0224 67.9504 12.7328 67.8557 12.5065 67.6302C12.2915 67.4144 12.1862 67.138 12.1862 66.8344C12.1862 66.2527 12.302 65.5595 12.3898 64.9778C12.4819 64.4487 12.6003 63.8591 12.6468 63.3257C12.7934 61.6428 12.8925 59.9486 12.8925 58.2587C12.8925 58.0683 12.8986 57.6199 12.8416 57.4418L12.8381 57.4322L12.8364 57.4225C12.7846 57.212 12.7302 56.9654 12.7302 56.7478C12.7302 56.2942 12.9118 55.9046 13.2277 55.5818C13.5585 55.2448 13.9682 55.072 14.4402 55.072C15.1887 55.072 15.4914 55.6019 15.4914 56.2881C15.4914 56.6346 15.4238 57.0084 15.3545 57.3383C15.3018 57.634 15.2299 57.9788 15.2097 58.285C15.1325 59.1089 15.0878 59.9486 15.0474 60.7803C15.7906 60.0977 16.5285 59.3993 17.226 58.6755C17.5708 58.3184 18.1701 57.7024 18.3956 57.2602C18.6711 56.718 19.0878 56.2337 19.7134 56.1433C19.8266 56.124 19.9564 56.1231 20.0723 56.1231C20.3951 56.1231 20.704 56.1951 20.9848 56.3565L20.9927 56.36L20.9988 56.3653C21.312 56.5697 21.5016 56.8628 21.5016 57.2418C21.5016 57.7314 21.1348 58.1157 20.7645 58.3868C20.0477 58.9115 19.3642 59.5116 18.7123 60.1126C17.8709 60.8874 17.0558 61.6955 16.2565 62.5141C16.8478 62.8501 17.4409 63.1835 18.0341 63.5178C18.6123 63.8425 19.5221 64.3566 20.1688 64.5067C20.8926 64.6742 21.2576 65.1761 21.2576 65.9123C21.2576 66.2755 21.1401 66.6194 20.9541 66.9283C20.7207 67.3152 20.3741 67.5749 19.9091 67.5749C19.5037 67.5749 19.1071 67.2362 18.8386 66.9643C18.4017 66.522 17.7954 66.1105 17.2769 65.7701C16.4898 65.2524 15.6695 64.7716 14.8456 64.3092ZM12.4696 60.1284C12.4696 62.1096 11.8466 63.8741 10.5639 65.3867C9.25218 66.9327 7.58687 67.768 5.55394 67.768C3.91759 67.768 2.55499 67.1424 1.49597 65.8947C0.465899 64.6795 0 63.245 0 61.6569C0 59.6757 0.614179 57.906 1.88729 56.3854C3.19373 54.8281 4.85992 53.9866 6.89899 53.9866C8.54587 53.9866 9.9111 54.6192 10.9736 55.8774C12.0037 57.0979 12.4696 58.536 12.4696 60.1284ZM57.8522 61.1831C57.8522 60.4969 57.6346 59.9038 57.145 59.4195C56.6326 58.9124 55.986 58.7185 55.2735 58.7185C54.0469 58.7185 53.0019 59.1668 52.1061 60.0003C51.2664 60.7812 50.74 61.7244 50.74 62.8905C50.74 63.5784 50.9664 64.1627 51.456 64.6479C51.9745 65.1603 52.6334 65.3542 53.3529 65.3542C54.5795 65.3542 55.6219 64.9173 56.5098 64.0741C57.3416 63.2853 57.8522 62.3412 57.8522 61.1831ZM39.9269 57.2006C39.6593 59.5485 39.4602 61.942 39.4602 64.3031C39.4602 64.49 39.4619 64.6769 39.4672 64.8638C40.8596 64.7611 42.1011 64.2119 43.2084 63.3423C44.3832 62.4211 45.7616 61.0444 45.7616 59.4362C45.7616 57.3822 43.8173 57.0365 42.1345 57.0365C41.4001 57.0365 40.6561 57.104 39.9269 57.2006ZM10.2436 59.924C10.2436 59.0606 9.99972 58.2877 9.4145 57.6463C8.83804 57.0154 8.10629 56.7504 7.25785 56.7504C5.84348 56.7504 4.67391 57.3348 3.69385 58.342C2.70941 59.3546 2.14173 60.5452 2.14173 61.9648C2.14173 62.8308 2.38916 63.6021 2.97877 64.2417C3.56224 64.8752 4.30364 65.1384 5.15823 65.1384C6.57084 65.1384 7.73779 64.5654 8.71258 63.5538C9.69351 62.5351 10.2436 61.3436 10.2436 59.924Z" fill="#AF5900"/>
<path d="M80.5374 64.5162C80.5374 64.6926 80.5567 64.9531 80.5961 65.298C80.6321 65.6428 80.6523 65.9034 80.6523 66.0771C80.6523 66.4281 80.5119 66.7448 80.2259 67.0308C79.9398 67.3134 79.6231 67.4564 79.273 67.4564C79.0203 67.4564 78.8098 67.3748 78.6422 67.2098C78.4711 67.0475 78.3868 66.8396 78.3868 66.5877C78.3868 66.4219 78.4518 66.1333 78.5834 65.7156C78.7685 65.1128 78.9168 64.5548 79.0256 64.0389C79.18 62.5956 79.2555 61.7743 79.2555 61.5778C79.2555 59.8791 79.2335 58.9544 79.1914 58.7999C79.0932 58.4499 79.0431 58.2024 79.0431 58.0629C79.0431 57.69 79.1976 57.3479 79.5029 57.0337C79.8109 56.7223 80.1504 56.5661 80.5198 56.5661C81.0699 56.5661 81.3419 56.8969 81.3419 57.5523C81.3419 57.7067 81.3279 57.8638 81.2937 58.0296C80.7892 60.8776 80.5374 63.0387 80.5374 64.5162ZM77.7955 65.9121C77.7955 66.1982 77.7051 66.4895 77.5314 66.7834C77.3243 67.123 77.055 67.2941 76.7277 67.2941C76.4969 67.2941 76.2056 67.1177 75.8556 66.7667C75.1993 66.0999 73.7138 65.1242 71.4036 63.8432C71.3808 64.2495 71.3729 64.6057 71.3729 64.911C71.3729 65.054 71.3843 65.2892 71.4124 65.6173C71.4405 65.9455 71.4536 66.1806 71.4536 66.3236C71.4536 66.686 71.3361 66.9992 71.1009 67.2686C70.8658 67.538 70.5517 67.6696 70.156 67.6696C69.8927 67.6696 69.6822 67.5906 69.5225 67.4309C69.3654 67.2747 69.2847 67.0721 69.2847 66.8343C69.2847 66.5035 69.3514 65.9034 69.4839 65.026C69.6348 64.16 69.7243 63.602 69.7445 63.3493C69.9094 61.4769 69.991 59.7809 69.991 58.2586C69.991 57.7988 69.9708 57.4961 69.9261 57.3557C69.862 57.0925 69.8287 56.8907 69.8287 56.7477C69.8287 56.3862 69.9682 56.0642 70.2455 55.7782C70.5262 55.4948 70.8623 55.3518 71.258 55.3518C71.7713 55.3518 72.0292 55.6632 72.0292 56.288C72.0292 56.5406 71.9836 56.8741 71.8976 57.2891C71.8099 57.7708 71.7599 58.0936 71.7485 58.2586C71.6949 58.828 71.6282 59.8906 71.5519 61.4462C73.8393 59.3632 75.1431 58.012 75.4634 57.3873C75.7573 56.8065 76.1302 56.4845 76.5785 56.4196C76.6435 56.409 76.7496 56.4029 76.89 56.4029C77.176 56.4029 77.434 56.4678 77.6639 56.5994C77.9157 56.7644 78.0394 56.9776 78.0394 57.2417C78.0394 57.547 77.8315 57.8524 77.4165 58.1612C76.2451 59.0132 74.6474 60.4872 72.6206 62.5789C73.004 62.7974 73.7024 63.1922 74.7149 63.7616C75.7266 64.3311 76.4636 64.6697 76.9233 64.7794C77.5042 64.911 77.7955 65.2892 77.7955 65.9121ZM68.6925 65.9121C68.6925 66.1982 68.603 66.4895 68.4292 66.7834C68.2222 67.123 67.9528 67.2941 67.6247 67.2941C67.3948 67.2941 67.1035 67.1177 66.7534 66.7667C66.0971 66.0999 64.6108 65.1242 62.3015 63.8432C62.2787 64.2495 62.2708 64.6057 62.2708 64.911C62.2708 65.054 62.2813 65.2892 62.3094 65.6173C62.3375 65.9455 62.3515 66.1806 62.3515 66.3236C62.3515 66.686 62.2339 66.9992 61.9988 67.2686C61.7628 67.538 61.4487 67.6696 61.0538 67.6696C60.7906 67.6696 60.58 67.5906 60.4203 67.4309C60.2633 67.2747 60.1817 67.0721 60.1817 66.8343C60.1817 66.5035 60.2493 65.9034 60.3809 65.026C60.5327 64.16 60.6221 63.602 60.6414 63.3493C60.8073 61.4769 60.888 59.7809 60.888 58.2586C60.888 57.7988 60.8687 57.4961 60.8239 57.3557C60.7599 57.0925 60.7257 56.8907 60.7257 56.7477C60.7257 56.3862 60.8661 56.0642 61.1433 55.7782C61.4241 55.4948 61.7601 55.3518 62.1558 55.3518C62.6691 55.3518 62.9262 55.6632 62.9262 56.288C62.9262 56.5406 62.8815 56.8741 62.7946 57.2891C62.7077 57.7708 62.6568 58.0936 62.6463 58.2586C62.5928 58.828 62.5252 59.8906 62.4498 61.4462C64.7372 59.3632 66.041 58.012 66.3603 57.3873C66.6543 56.8065 67.028 56.4845 67.4764 56.4196C67.5404 56.409 67.6466 56.4029 67.787 56.4029C68.073 56.4029 68.3319 56.4678 68.5609 56.5994C68.8135 56.7644 68.9364 56.9776 68.9364 57.2417C68.9364 57.547 68.7293 57.8524 68.3143 58.1612C67.143 59.0132 65.5452 60.4872 63.5176 62.5789C63.9019 62.7974 64.6003 63.1922 65.6119 63.7616C66.6236 64.3311 67.3615 64.6697 67.8212 64.7794C68.4012 64.911 68.6925 65.2892 68.6925 65.9121ZM58.133 61.183C58.133 60.3951 57.8697 59.7388 57.3424 59.2202C56.8177 58.699 56.1281 58.4385 55.2735 58.4385C54.0039 58.4385 52.8852 58.8921 51.9148 59.7949C50.9453 60.6978 50.4601 61.7296 50.4601 62.8904C50.4601 63.6695 50.726 64.3197 51.2585 64.847C51.7885 65.3708 52.4869 65.634 53.3529 65.634C54.6339 65.634 55.7499 65.183 56.7028 64.2776C57.6565 63.3747 58.133 62.3438 58.133 61.183ZM59.9211 61.3479C59.9211 62.9878 59.3464 64.4293 58.197 65.6682C56.9836 66.9685 55.4867 67.6222 53.7144 67.6222C52.2456 67.6222 51.0401 67.1116 50.0986 66.0938C49.201 65.1295 48.7527 63.9748 48.7527 62.6289C48.7527 60.975 49.3221 59.5229 50.4601 58.2753C51.6657 56.9723 53.1599 56.3213 54.9454 56.3213C56.4229 56.3213 57.6337 56.8346 58.5761 57.8638C59.4728 58.828 59.9211 59.9888 59.9211 61.3479ZM42.1345 56.7565C41.4334 56.7565 40.6122 56.8205 39.6725 56.953C39.3452 59.7923 39.1794 62.242 39.1794 64.303C39.1794 64.5969 39.1847 64.883 39.1969 65.1576C40.685 65.1128 42.0809 64.5829 43.3812 63.5625C45.1562 62.1692 46.0424 60.796 46.0424 59.4361C46.0424 57.6506 44.7386 56.7565 42.1345 56.7565ZM47.5893 59.086C47.5893 61.1461 46.6083 63.1308 44.6491 65.0374C43.3225 66.321 41.6747 67.0861 39.7041 67.3388C39.2662 67.3502 38.7679 67.3835 38.2099 67.4371C37.8791 67.4704 37.7326 67.4871 37.7633 67.4871C37.2395 67.4871 36.9762 67.201 36.9762 66.6325C36.9762 66.4588 37.0183 66.1841 37.1052 65.8139C37.214 65.3208 37.3351 64.3249 37.4641 62.8255C37.6317 60.8662 37.7159 59.2509 37.7159 57.9813C37.7159 57.7515 37.6852 57.4233 37.6238 56.9969C37.565 56.5714 37.5343 56.2458 37.5343 56.0274C37.5343 55.6238 37.6939 55.2623 38.0107 54.9455C38.3301 54.6288 38.6889 54.4682 39.0952 54.4682C39.2917 54.4682 39.468 54.5446 39.6225 54.6963C40.7043 54.4437 41.6633 54.3173 42.496 54.3173C44.0744 54.3173 45.2685 54.7235 46.0784 55.5343C47.0848 56.5319 47.5893 57.7155 47.5893 59.086ZM35.1258 60.6469C35.1258 60.9636 34.9714 61.2163 34.666 61.4041C34.4134 61.5471 34.1133 61.6173 33.7632 61.6173C33.5535 61.6173 33.2447 61.6032 32.8358 61.5752C32.4234 61.5471 32.1154 61.533 31.9049 61.533C30.6151 61.533 29.4438 61.6673 28.3926 61.9393C28.1399 62.0042 27.9267 62.0375 27.7504 62.0375C27.4003 62.0375 27.08 61.9173 26.7888 61.6761C26.5001 61.4348 26.3544 61.1435 26.3544 60.8039C26.3544 60.4846 26.4808 60.2327 26.7326 60.0476C26.9853 59.8598 27.274 59.7668 27.6021 59.7668C27.8539 59.7668 28.2356 59.8063 28.7454 59.8844C29.2525 59.9634 29.6342 60.0029 29.8868 60.0029C30.8932 60.0029 31.7759 59.8598 32.5296 59.5764C32.9367 59.422 33.2754 59.3466 33.5474 59.3466C33.9097 59.3466 34.2537 59.4668 34.5844 59.7081C34.9433 59.9827 35.1258 60.2942 35.1258 60.6469ZM23.5564 55.5141C23.2063 55.5141 22.9063 55.3965 22.6597 55.1614C22.4123 54.9254 22.3114 54.6402 22.3561 54.3006C22.3903 53.9611 22.5334 53.6531 22.7913 53.3811C23.0493 53.1065 23.3432 52.9688 23.6714 52.9688C24.0214 52.9688 24.3189 53.1065 24.5654 53.3811C24.8128 53.6531 24.9129 53.9672 24.869 54.3173C24.8374 54.6341 24.6891 54.9148 24.425 55.1552C24.1644 55.3965 23.8732 55.5141 23.5564 55.5141ZM23.7187 64.5162C23.7187 64.6926 23.7389 64.9531 23.7775 65.298C23.8144 65.6428 23.8337 65.9034 23.8337 66.0771C23.8337 66.4281 23.6942 66.7448 23.4081 67.0308C23.1221 67.3134 22.8054 67.4564 22.4553 67.4564C22.2026 67.4564 21.992 67.3748 21.8244 67.2098C21.6533 67.0475 21.5691 66.8396 21.5691 66.5877C21.5691 66.4219 21.6332 66.1333 21.7648 65.7156C21.9499 65.1128 22.0991 64.5548 22.2078 64.0389C22.3623 62.5956 22.4377 61.7743 22.4377 61.5778C22.4377 59.8791 22.4158 58.9544 22.3737 58.7999C22.2754 58.4499 22.2245 58.2024 22.2245 58.0629C22.2245 57.69 22.3789 57.3479 22.6843 57.0337C22.9931 56.7223 23.3318 56.5661 23.7021 56.5661C24.2522 56.5661 24.5233 56.8969 24.5233 57.5523C24.5233 57.7067 24.5093 57.8638 24.4759 58.0296C23.9714 60.8776 23.7187 63.0387 23.7187 64.5162ZM20.9777 65.9121C20.9777 66.1982 20.8874 66.4895 20.7136 66.7834C20.5066 67.123 20.2372 67.2941 19.9091 67.2941C19.6792 67.2941 19.3879 67.1177 19.0378 66.7667C18.3815 66.0999 16.8961 65.1242 14.5859 63.8432C14.5631 64.2495 14.5552 64.6057 14.5552 64.911C14.5552 65.054 14.5666 65.2892 14.5947 65.6173C14.6219 65.9455 14.6359 66.1806 14.6359 66.3236C14.6359 66.686 14.5183 66.9992 14.2832 67.2686C14.0472 67.538 13.7339 67.6696 13.3382 67.6696C13.075 67.6696 12.8644 67.5906 12.7047 67.4309C12.5477 67.2747 12.4661 67.0721 12.4661 66.8343C12.4661 66.5035 12.5336 65.9034 12.6653 65.026C12.817 64.16 12.9065 63.602 12.9267 63.3493C13.0917 61.4769 13.1733 59.7809 13.1733 58.2586C13.1733 57.7988 13.1531 57.4961 13.1083 57.3557C13.0443 57.0925 13.0109 56.8907 13.0109 56.7477C13.0109 56.3862 13.1505 56.0642 13.4277 55.7782C13.7085 55.4948 14.0445 55.3518 14.4402 55.3518C14.9526 55.3518 15.2106 55.6632 15.2106 56.288C15.2106 56.5406 15.1658 56.8741 15.079 57.2891C14.9921 57.7708 14.9421 58.0936 14.9307 58.2586C14.8772 58.828 14.8105 59.8906 14.7342 61.4462C17.0215 59.3632 18.3254 58.012 18.6447 57.3873C18.9395 56.8065 19.3124 56.4845 19.7608 56.4196C19.8248 56.409 19.9319 56.4029 20.0723 56.4029C20.3583 56.4029 20.6154 56.4678 20.8452 56.5994C21.0979 56.7644 21.2217 56.9776 21.2217 57.2417C21.2217 57.547 21.0137 57.8524 20.5987 58.1612C19.4274 59.0132 17.8296 60.4872 15.8028 62.5789C16.1863 62.7974 16.8847 63.1922 17.8963 63.7616C18.9088 64.3311 19.6458 64.6697 20.1056 64.7794C20.6856 64.911 20.9777 65.2892 20.9777 65.9121ZM10.5235 59.9239C10.5235 58.9377 10.2243 58.1156 9.62068 57.4575C9.02141 56.7986 8.23351 56.4705 7.25784 56.4705C5.83645 56.4705 4.5809 57.0285 3.49292 58.1463C2.40582 59.265 1.86184 60.5381 1.86184 61.9647C1.86184 62.9518 2.16454 63.773 2.77258 64.432C3.37798 65.0909 4.17466 65.4182 5.15822 65.4182C6.59102 65.4182 7.84394 64.861 8.91437 63.7476C9.98831 62.6351 10.5235 61.362 10.5235 59.9239ZM12.1888 60.1283C12.1888 62.0577 11.5746 63.7476 10.3498 65.2058C9.04686 66.7281 7.44824 67.4871 5.55393 67.4871C3.99743 67.4871 2.71642 66.8957 1.71005 65.713C0.75719 64.5855 0.280762 63.2343 0.280762 61.6568C0.280762 59.7195 0.888799 58.0234 2.10224 56.5661C3.39465 55.0324 4.99591 54.2673 6.89898 54.2673C8.46602 54.2673 9.75317 54.8639 10.7595 56.0581C11.7124 57.1855 12.1888 58.542 12.1888 60.1283Z" fill="#5A2B00"/>
<path d="M1.23584 75.9531V72.2891H2.22906V72.6646C2.34312 72.5268 2.46595 72.4198 2.59669 72.3426C2.7283 72.2645 2.89062 72.2268 3.08452 72.2268C3.25298 72.2268 3.41179 72.261 3.5627 72.3303C3.71362 72.3987 3.84698 72.4944 3.96192 72.6198C4.07686 72.7436 4.16811 72.8989 4.23567 73.0857C4.30235 73.2726 4.33569 73.4771 4.33569 73.7008C4.33569 73.9237 4.30235 74.129 4.23567 74.3167C4.16811 74.5045 4.07774 74.6607 3.96367 74.7861C3.84874 74.9107 3.71625 75.0073 3.56534 75.0766C3.41442 75.145 3.25561 75.1801 3.08978 75.1801C2.89412 75.1801 2.7283 75.1432 2.59318 75.0704C2.45718 74.9967 2.3361 74.8976 2.22906 74.7721V75.9531H1.23584ZM2.20624 73.7061C2.20624 73.8912 2.2624 74.0447 2.37383 74.1667C2.48526 74.2878 2.62213 74.3483 2.78269 74.3483C2.94852 74.3483 3.08628 74.2887 3.19683 74.1676C3.30738 74.0465 3.36353 73.8894 3.36353 73.6955C3.36353 73.5113 3.30738 73.3604 3.19595 73.2384C3.08452 73.1182 2.94677 73.0577 2.78269 73.0577C2.62213 73.0577 2.48526 73.1191 2.37383 73.2393C2.2624 73.3613 2.20624 73.5166 2.20624 73.7061ZM5.6553 73.7061C5.6553 73.5069 5.69478 73.3174 5.77375 73.1358C5.85359 72.955 5.96151 72.7971 6.09839 72.6637C6.23526 72.5304 6.40284 72.4242 6.59938 72.3452C6.79416 72.2654 7.00386 72.2268 7.22672 72.2268C7.52241 72.2268 7.78914 72.2926 8.02867 72.4251C8.2682 72.5584 8.4542 72.7383 8.58669 72.9638C8.72006 73.1902 8.78674 73.4376 8.78674 73.7061C8.78674 73.9044 8.74726 74.0939 8.66829 74.2755C8.58845 74.4571 8.48053 74.6142 8.34365 74.7475C8.20765 74.8809 8.04183 74.9871 7.84529 75.0669C7.64963 75.1459 7.43993 75.1854 7.21795 75.1854C6.99509 75.1854 6.78715 75.1459 6.59236 75.0678C6.3967 74.9897 6.23087 74.8844 6.09575 74.7511C5.95888 74.6186 5.85184 74.4624 5.77287 74.2799C5.69478 74.0983 5.6553 73.9061 5.6553 73.7061ZM6.62746 73.7061C6.62746 73.8807 6.68537 74.0307 6.79943 74.1562C6.91349 74.2808 7.05651 74.3439 7.22672 74.3439C7.4022 74.3439 7.54346 74.2825 7.65138 74.1597C7.76018 74.0377 7.8137 73.8859 7.8137 73.7061C7.8137 73.5306 7.75755 73.3806 7.64436 73.2551C7.5303 73.1305 7.38816 73.0682 7.21795 73.0682C7.04247 73.0682 6.90121 73.1296 6.79153 73.2525C6.68273 73.377 6.62746 73.5271 6.62746 73.7061ZM9.98439 75.1275L10.0283 74.3483C10.1011 74.3597 10.1546 74.3641 10.1879 74.3641C10.2187 74.3641 10.245 74.3615 10.2669 74.3562C10.288 74.3518 10.3117 74.3378 10.3406 74.3159C10.3687 74.2939 10.3924 74.2615 10.4108 74.2211C10.4292 74.1807 10.4485 74.122 10.4696 74.0474C10.4898 73.9719 10.5064 73.8815 10.5196 73.7754C10.5319 73.6701 10.5415 73.5376 10.5494 73.3788C10.5573 73.2191 10.5608 73.0375 10.5608 72.8348V72.2891H13.0281V75.1327H12.0349V73.0787H11.5172V73.1524C11.5172 73.4858 11.4997 73.7736 11.4619 74.0167C11.4251 74.2588 11.3759 74.4527 11.3136 74.5966C11.2531 74.7414 11.1724 74.8563 11.075 74.9406C10.9776 75.0248 10.8776 75.0818 10.7767 75.1099C10.6749 75.1389 10.5582 75.1538 10.4257 75.1538C10.2906 75.1538 10.1441 75.145 9.98439 75.1275ZM14.3196 75.1275L14.3626 74.3483C14.4363 74.3597 14.4898 74.3641 14.5232 74.3641C14.5539 74.3641 14.5802 74.3615 14.6021 74.3562C14.6223 74.3518 14.6469 74.3378 14.6758 74.3159C14.7039 74.2939 14.7276 74.2615 14.7452 74.2211C14.7645 74.1807 14.7838 74.122 14.8048 74.0474C14.825 73.9719 14.8417 73.8815 14.8548 73.7754C14.8662 73.6701 14.8768 73.5376 14.8847 73.3788C14.8926 73.2191 14.8961 73.0375 14.8961 72.8348V72.2891H17.3633V75.1327H16.3701V73.0787H15.8524V73.1524C15.8524 73.4858 15.8349 73.7736 15.7972 74.0167C15.7603 74.2588 15.7112 74.4527 15.6489 74.5966C15.5883 74.7414 15.5076 74.8563 15.4102 74.9406C15.3128 75.0248 15.2128 75.0818 15.111 75.1099C15.0101 75.1389 14.8934 75.1538 14.761 75.1538C14.6258 75.1538 14.4784 75.145 14.3196 75.1275ZM18.8707 75.1169V72.2891H19.8639V73.1779H20.3438C20.6904 73.1779 20.9721 73.2595 21.187 73.4244C21.402 73.5885 21.5108 73.8245 21.5108 74.1307C21.5108 74.4378 21.409 74.6791 21.2072 74.8537C21.0045 75.0292 20.7308 75.1169 20.386 75.1169H18.8707ZM19.8639 74.401H20.1701C20.2921 74.401 20.386 74.3755 20.4526 74.3246C20.5202 74.2729 20.5535 74.1983 20.5535 74.1009C20.5535 74.0114 20.5202 73.9421 20.4518 73.8912C20.3833 73.8403 20.2894 73.8157 20.1701 73.8157H19.8639V74.401ZM21.8293 72.2891H22.8225V75.1169H21.8293V72.2891ZM27.2349 73.4358C27.2349 73.306 27.2384 73.1866 27.2463 73.077C27.2542 72.9673 27.27 72.8497 27.2928 72.7243C27.3148 72.5997 27.3455 72.4856 27.3832 72.383C27.4201 72.2812 27.471 72.1794 27.5359 72.0794C27.6008 71.9793 27.6763 71.8916 27.7631 71.8188C27.85 71.746 27.9553 71.681 28.079 71.6266C28.2036 71.5705 28.3422 71.5301 28.4949 71.5056L29.9373 71.2695L30.0575 72.0381L28.5738 72.311C28.4554 72.3329 28.3519 72.3689 28.265 72.4172C28.1764 72.4663 28.1123 72.5198 28.0693 72.5795C28.0272 72.6392 27.9956 72.6927 27.9763 72.7409C27.9562 72.7892 27.9448 72.8339 27.9412 72.8769C27.9623 72.8427 27.9965 72.8032 28.0448 72.7611C28.093 72.7181 28.1571 72.6716 28.2343 72.6234C28.3124 72.576 28.4107 72.5356 28.5309 72.504C28.6502 72.4724 28.7765 72.4567 28.9116 72.4567C29.0898 72.4567 29.2617 72.4874 29.4249 72.5488C29.589 72.6111 29.7329 72.6962 29.8566 72.8067C29.9794 72.9164 30.0786 73.0533 30.1514 73.2174C30.2251 73.3797 30.2611 73.5569 30.2611 73.7464C30.2611 74.0061 30.197 74.2465 30.0672 74.4659C29.9373 74.6852 29.7566 74.8598 29.5232 74.9897C29.2889 75.1196 29.0292 75.1854 28.7432 75.1854C28.2422 75.1854 27.8658 75.0371 27.6131 74.7414C27.3613 74.4457 27.2349 74.0096 27.2349 73.4358ZM28.2071 73.7587C28.2071 73.921 28.2597 74.0588 28.3633 74.1728C28.4677 74.2869 28.5975 74.3439 28.7537 74.3439C28.9143 74.3439 29.0433 74.2878 29.1415 74.1764C29.2407 74.0649 29.2889 73.9263 29.2889 73.7587C29.2889 73.5981 29.2372 73.4595 29.1336 73.3455C29.0283 73.2305 28.8985 73.1726 28.7432 73.1726C28.5826 73.1726 28.4528 73.2288 28.3545 73.3411C28.2562 73.4534 28.2071 73.5929 28.2071 73.7587ZM31.4728 72.2891H32.5116L33.0758 73.993L33.6092 72.2891H34.6297L33.5934 75.0476C33.4697 75.3828 33.3285 75.6206 33.1705 75.7601C33.0117 75.8996 32.7941 75.9689 32.5169 75.9689C32.2036 75.9689 31.9009 75.8873 31.6088 75.7241L31.9167 75.0266C32.0861 75.1283 32.23 75.1801 32.3502 75.1801C32.4493 75.1801 32.5257 75.1415 32.5809 75.0652L31.4728 72.2891ZM35.9545 75.9531V72.2891H36.9477V72.6646C37.0618 72.5268 37.1846 72.4198 37.3154 72.3426C37.447 72.2645 37.6102 72.2268 37.8032 72.2268C37.9717 72.2268 38.1314 72.261 38.2814 72.3303C38.4323 72.3987 38.5657 72.4944 38.6806 72.6198C38.7956 72.7436 38.8877 72.8989 38.9544 73.0857C39.021 73.2726 39.0544 73.4771 39.0544 73.7008C39.0544 73.9237 39.021 74.129 38.9544 74.3167C38.8877 74.5045 38.7964 74.6607 38.6824 74.7861C38.5674 74.9107 38.4349 75.0073 38.284 75.0766C38.134 75.145 37.9752 75.1801 37.8085 75.1801C37.6128 75.1801 37.447 75.1432 37.3119 75.0704C37.1759 74.9967 37.0548 74.8976 36.9477 74.7721V75.9531H35.9545ZM36.9249 73.7061C36.9249 73.8912 36.9811 74.0447 37.0925 74.1667C37.2039 74.2878 37.3408 74.3483 37.5023 74.3483C37.6672 74.3483 37.805 74.2887 37.9155 74.1676C38.027 74.0465 38.0822 73.8894 38.0822 73.6955C38.0822 73.5113 38.027 73.3604 37.9146 73.2384C37.8032 73.1182 37.6655 73.0577 37.5023 73.0577C37.3408 73.0577 37.2039 73.1191 37.0925 73.2393C36.9811 73.3613 36.9249 73.5166 36.9249 73.7061ZM40.4898 75.1169V72.2891H42.6219V73.0893H41.483V75.1169H40.4898ZM43.8266 73.7052C43.8266 73.5008 43.8608 73.3086 43.9318 73.1261C44.0029 72.9445 44.0994 72.7874 44.224 72.6558C44.3477 72.5242 44.4995 72.4198 44.6776 72.3426C44.8549 72.2645 45.047 72.2268 45.2532 72.2268C45.4892 72.2268 45.6998 72.2671 45.8858 72.3505C46.0709 72.4321 46.221 72.5453 46.335 72.6892C46.4491 72.8331 46.536 72.9963 46.5939 73.1796C46.6535 73.363 46.6816 73.5613 46.6816 73.7736C46.6816 73.864 46.6799 73.9316 46.6764 73.9781H44.7838C44.8224 74.1325 44.8952 74.2501 45.0014 74.3317C45.1076 74.4124 45.2392 74.4536 45.3962 74.4536C45.6173 74.4536 45.8262 74.3545 46.0236 74.1579L46.5719 74.6168C46.2719 74.9958 45.8612 75.1854 45.3418 75.1854C45.0479 75.1854 44.7856 75.1239 44.5566 75.0011C44.3267 74.8792 44.1477 74.7054 44.0187 74.4817C43.8906 74.2562 43.8266 73.9974 43.8266 73.7052ZM44.768 73.4709H45.7507C45.7314 73.313 45.6787 73.1875 45.5919 73.0963C45.5059 73.0041 45.3953 72.9585 45.2602 72.9585C45.133 72.9585 45.0251 73.0041 44.9382 73.0972C44.8496 73.1902 44.7935 73.3147 44.768 73.4709ZM48.1065 75.9531V72.2891H49.0997V72.6646C49.2138 72.5268 49.3366 72.4198 49.4674 72.3426C49.599 72.2645 49.7613 72.2268 49.9552 72.2268C50.1228 72.2268 50.2825 72.261 50.4334 72.3303C50.5843 72.3987 50.7177 72.4944 50.8326 72.6198C50.9475 72.7436 51.0388 72.8989 51.1055 73.0857C51.173 73.2726 51.2064 73.4771 51.2064 73.7008C51.2064 73.9237 51.173 74.129 51.1055 74.3167C51.0388 74.5045 50.9484 74.6607 50.8343 74.7861C50.7194 74.9107 50.5869 75.0073 50.436 75.0766C50.2851 75.145 50.1263 75.1801 49.9605 75.1801C49.7639 75.1801 49.599 75.1432 49.4638 75.0704C49.3279 74.9967 49.2068 74.8976 49.0997 74.7721V75.9531H48.1065ZM49.0769 73.7061C49.0769 73.8912 49.1331 74.0447 49.2445 74.1667C49.3559 74.2878 49.4928 74.3483 49.6534 74.3483C49.8192 74.3483 49.9569 74.2887 50.0675 74.1676C50.1781 74.0465 50.2342 73.8894 50.2342 73.6955C50.2342 73.5113 50.1781 73.3604 50.0666 73.2384C49.9552 73.1182 49.8174 73.0577 49.6534 73.0577C49.4928 73.0577 49.3559 73.1191 49.2445 73.2393C49.1331 73.3613 49.0769 73.5166 49.0769 73.7061ZM52.6409 75.1169V72.2891H53.6341V73.1779H54.1141C54.4606 73.1779 54.7423 73.2595 54.9572 73.4244C55.1731 73.5885 55.281 73.8245 55.281 74.1307C55.281 74.4378 55.1792 74.6791 54.9774 74.8537C54.7747 75.0292 54.501 75.1169 54.1562 75.1169H52.6409ZM53.6341 74.401H53.9412C54.0623 74.401 54.1562 74.3755 54.2229 74.3246C54.2904 74.2729 54.3246 74.1983 54.3246 74.1009C54.3246 74.0114 54.2904 73.9421 54.222 73.8912C54.1535 73.8403 54.0605 73.8157 53.9412 73.8157H53.6341V74.401ZM55.5995 72.2891H56.5927V75.1169H55.5995V72.2891ZM61.021 75.1169V72.2891H63.7813V75.1169H62.788V73.0893H62.0142V75.1169H61.021ZM65.3149 75.1169V72.2891H66.2722V73.7061L67.2189 72.2891H68.127V75.1169H67.1706V73.7008L66.2266 75.1169H65.3149ZM69.666 75.1169V72.2891H70.6592V74.3176H71.4331V72.2891H72.4263V74.3176H72.7553L72.6614 75.6872H71.8147V75.1169H69.666ZM74.0223 75.1169V72.2891H75.0155V74.3176H75.7885V72.2891H76.7817V74.3176H77.1116L77.0177 75.6872H76.1701V75.1169H74.0223ZM78.2373 74.2948C78.2373 74.0096 78.3364 73.7903 78.5356 73.6368C78.7348 73.485 79.0033 73.4078 79.3446 73.4078C79.5973 73.4078 79.8245 73.4446 80.0245 73.5174V73.4718C80.0245 73.1638 79.8359 73.0103 79.4586 73.0103C79.2007 73.0103 78.941 73.0629 78.6804 73.1665L78.4768 72.4672C78.8357 72.3207 79.2173 72.2478 79.6218 72.2478C80.1097 72.2478 80.4694 72.3628 80.6984 72.5926C80.9011 72.7892 81.002 73.0893 81.002 73.4911V75.1169H80.0193V74.823C79.8034 75.0608 79.5262 75.1801 79.1884 75.1801C78.9094 75.1801 78.6813 75.102 78.504 74.9467C78.3259 74.7914 78.2373 74.5738 78.2373 74.2948ZM79.1936 74.2483C79.1936 74.3439 79.2261 74.4194 79.2902 74.4747C79.3542 74.5299 79.4393 74.558 79.5429 74.558C79.6894 74.558 79.8078 74.515 79.8982 74.4299C79.9886 74.3448 80.0351 74.2325 80.0351 74.093V73.9605C79.9193 73.9123 79.7903 73.8886 79.6473 73.8886C79.5042 73.8886 79.3928 73.921 79.3139 73.986C79.234 74.0509 79.1936 74.1377 79.1936 74.2483Z" fill="#5A2B00"/>
<path d="M25.8505 22.5344L25.8294 22.5134C27.829 22.967 30.026 23.4241 30.9227 23.5987L31.3395 23.6759C34.4709 24.47 37.8928 24.8104 40.8716 26.08C41.2594 26.2458 41.5331 26.3529 41.7788 26.3353C41.9806 26.3213 42.1543 26.2195 42.2535 26.0572C42.7422 25.2579 41.4261 23.303 41.0839 22.5774C39.7897 19.832 38.3552 17.1911 37.1909 14.3816L37.2576 14.4106L36.8487 13.3831C36.5337 12.5944 35.53 10.2649 34.5946 8.48199C33.7497 6.8702 33.3321 4.58195 31.0078 4.74426C30.8552 4.75567 30.6972 4.77936 30.5402 4.81621C29.8611 4.97327 29.2706 5.32774 28.8854 5.57955C26.734 6.98865 24.8836 8.83382 23.3771 10.9124C22.6085 11.9723 21.9268 13.0962 21.3389 14.2658C20.8274 15.2818 20.5326 16.5821 19.7517 17.428C19.3182 17.8974 19.2744 18.6274 19.2288 19.4003C19.213 19.6671 19.1963 19.9435 19.1638 20.219C19.1226 20.569 19.2314 20.9016 19.4718 21.1543C19.9772 21.6851 20.5554 21.528 21.1968 21.5158C22.2795 21.4956 23.2051 21.9202 24.2387 22.1422" fill="black"/>
<path d="M22.2316 21.1419C22.0096 21.1068 21.8157 21.0744 21.6455 21.0428C22.5308 19.5574 21.6359 19.1976 22.5176 18.3193C23.1239 17.7166 24.1522 16.6277 24.2075 15.4081C24.2119 15.2765 24.3444 14.4667 24.8085 14.2403C25.1384 14.0815 26.1246 13.4428 26.2948 12.2477C26.3554 11.8029 27.0345 11.5818 27.7627 10.3157C28.7472 8.59951 30.7433 9.08033 31.9339 8.49159C32.6472 8.13975 32.5972 7.61946 33.5738 7.17725C33.6045 7.25621 33.6431 7.34132 33.6834 7.43081C33.5483 7.8625 33.3974 8.27663 33.0087 8.36612C32.4077 8.503 32.3314 8.66707 32.0137 9.10928C31.4601 9.88841 30.8845 9.67959 30.3827 9.59448C28.8332 9.33389 28.8428 9.99545 28.7323 10.335C28.3585 11.487 27.933 10.979 27.7338 11.688C27.5215 12.4469 27.2407 11.6572 26.8573 12.7066C26.6756 13.2059 26.2861 12.9514 26.1176 13.5007C25.9851 13.9227 26.1457 14.4026 26.0246 14.7483C25.8807 15.1572 24.9156 15.0844 24.7252 15.5862C24.6023 15.9065 24.6813 16.4154 23.8987 17.0883C23.7416 17.2208 24.0671 18.0517 23.7951 18.4123C23.295 19.0722 22.9344 18.837 22.7238 19.2274C22.3957 19.8364 22.8054 20.7769 22.2316 21.1419Z" fill="#FFCC3B"/>
<path d="M22.4536 21.1911C22.8607 20.7752 22.6142 19.9294 22.9169 19.3687C23.1266 18.98 23.4889 19.2476 23.9873 18.5536C24.3146 18.0965 23.9487 17.3384 24.09 17.2287C24.9656 16.5496 24.7743 15.9933 24.8945 15.674C25.0858 15.1739 26.0746 15.2984 26.2168 14.8887C26.3361 14.5465 26.1773 14.0639 26.3098 13.6419C26.4782 13.0927 26.938 13.2611 27.0494 12.847C27.2214 12.2126 27.6741 12.3539 27.926 11.8906L28.5884 12.0635C28.4015 12.3978 28.2383 12.9532 28.5629 13.5164C26.9942 14.4632 26.6204 16.2355 27.1214 17.7595L26.6239 17.9324C26.401 17.0234 25.8641 16.8997 25.4026 17.1234C25.063 17.2884 24.6708 17.4814 24.8059 18.5167C24.9138 19.3301 25.2306 19.968 25.8711 19.9232L25.6623 20.3023C25.4403 20.1698 25.1858 20.061 24.8744 20.018C24.3014 19.9408 22.8265 20.1891 24.3479 21.6947C23.5688 21.5052 22.8993 21.3306 22.4536 21.1911Z" fill="#FFE693"/>
<path d="M24.8105 21.8055C23.39 20.6254 24.1805 20.1525 24.7394 20.2718C25.6247 20.4622 26.0336 21.1571 26.9268 21.3668C27.5761 21.5177 27.6077 20.6175 28.2438 20.8737C28.7869 21.0913 28.4386 22.0064 29.0563 22.26C29.5046 22.4434 30.0223 21.9687 30.4908 22.0994C30.8883 22.2126 31.1357 22.7119 31.012 23.1471C30.0205 22.954 27.0874 22.3451 24.8105 21.8055Z" fill="#FFCC3B"/>
<path d="M25.0033 18.3783C24.9392 17.6632 25.1902 17.5536 25.4534 17.4544C25.7359 17.3474 26.1378 17.3167 26.2597 18.0396C25.8535 17.9686 25.3156 18.0958 25.0033 18.3783Z" fill="#3B4453"/>
<path d="M25.6621 20.3022L25.8709 19.9232C25.9166 19.9197 25.9622 19.9144 26.0104 19.9039C26.858 19.7267 26.808 18.8861 26.6544 18.078C26.6439 18.028 26.6343 17.9806 26.6237 17.9324L27.1212 17.7595C27.259 18.1816 27.4652 18.5816 27.7301 18.944C28.7681 20.3566 30.8037 20.6041 32.347 19.6538C32.7155 19.9486 33.2648 20.0136 33.5982 20.2092C33.8202 20.3391 33.9623 20.726 33.5508 20.6418C33.1691 20.5628 32.5497 20.2829 32.4637 21.0989C32.3146 22.5229 34.8178 22.401 35.6794 21.7341C35.9224 21.5455 36.1312 21.3332 36.3023 21.1042L36.9253 21.2077C36.7393 21.4218 36.6112 21.735 36.5708 22.1421C36.5226 22.6405 35.7171 22.6879 35.825 23.2784C35.8803 23.5811 36.0961 23.7548 36.3787 23.8109L36.2734 24.3172C34.8967 24.0259 33.3104 23.703 31.3854 23.2134C31.4336 22.7598 31.2476 22.143 30.7361 21.914C30.2904 21.7166 29.7499 22.0614 29.3033 21.8763C28.6856 21.6218 29.005 20.7111 28.1539 20.483C27.4959 20.3049 27.4371 21.22 26.8773 21.0954C26.4719 21.0041 26.1482 20.5953 25.6621 20.3022Z" fill="#FFE693"/>
<path d="M25.8418 19.6853C25.4742 19.7362 25.1627 19.301 25.0425 18.6728C25.325 18.3674 25.8611 18.2148 26.2849 18.2604C26.3305 18.8596 26.2191 19.6335 25.8418 19.6853Z" fill="#3B4453"/>
<path d="M27.99 18.7713C26.8994 17.2841 26.9529 15.1932 28.4155 13.9692C29.8746 12.7444 32.0242 12.9418 33.1438 14.3421C33.915 15.3073 34.0265 16.6348 33.5457 17.7684C33.2859 17.5859 32.9745 17.4578 32.6665 17.4999C32.1681 17.1682 31.1495 16.8848 30.9626 17.0779C30.8529 17.1911 31.2179 18.0886 31.4689 18.6432C31.554 18.8353 31.697 18.9055 31.8584 18.9064C31.9076 19.0757 31.9979 19.2512 32.1348 19.4311C30.7239 20.3278 28.9595 20.0891 27.99 18.7713ZM28.4331 17.156C27.825 17.2051 28.2611 17.8342 28.3795 18.0685C28.5427 18.3887 28.8235 18.7195 29.1911 18.2975C29.364 18.0965 30.1291 17.1059 30.051 16.9156C29.9957 16.7787 28.8919 17.1191 28.4331 17.156ZM28.219 15.2195C27.961 15.8855 27.8031 16.4295 28.5418 16.5365C28.8121 16.5751 29.8378 16.7989 29.9483 16.5655C30.0703 16.3031 29.4763 15.295 29.2052 14.9081C28.8568 14.4132 28.4067 14.7405 28.219 15.2195ZM29.6377 18.6835C29.4026 19.2486 29.9711 19.2319 30.2212 19.3065C30.5651 19.4091 31.0038 19.4784 30.9486 18.9239C30.9231 18.6581 30.716 17.2586 30.5265 17.184C30.3897 17.1314 29.8588 18.1536 29.6377 18.6835ZM30.6459 13.8455C30.2265 13.8543 29.7114 13.9359 29.9202 14.5536C30.022 14.8484 30.4748 16.2145 30.7125 16.1864C31.0951 16.1391 31.2328 15.0476 31.3364 14.5167C31.4689 13.8385 30.9038 13.8411 30.6459 13.8455ZM32.1497 15.066C31.9558 15.2617 31.1275 16.2171 31.1565 16.3672C31.2091 16.6523 32.2787 16.6444 32.7525 16.655C33.3553 16.6699 33.3254 16.1048 33.1122 15.6354C32.899 15.1616 32.6726 14.536 32.1497 15.066Z" fill="#F44A11"/>
<path d="M21.5112 20.314C21.5384 20.0771 21.6998 18.8312 22.3632 18.0196C23.0809 17.1414 23.76 16.4359 23.8153 15.2146C23.8223 15.0803 23.9346 14.3416 24.2592 14.0143C24.8023 13.4615 25.1717 14.1301 25.7587 12.528C26.3764 10.8443 26.3685 11.8208 27.6381 9.79226C27.7732 9.57729 27.9504 9.40796 28.1549 9.27108C29.0498 8.67796 30.501 8.692 31.4688 8.21381C32.026 7.93919 32.7182 7.28377 33.1376 6.80998C33.4745 6.42831 32.8156 5.80272 32.5585 5.63865C31.9593 5.25522 31.3635 5.09817 30.6441 5.26488C30.1018 5.39034 29.6035 5.65971 29.1376 5.96504C28.3207 6.50025 27.5854 7.14953 26.8537 7.7953C26.0465 8.50862 25.2638 9.15176 24.6426 10.0204C24.3505 10.4292 24.0092 10.8048 23.7161 11.2145C23.5213 11.4874 22.7457 12.3192 22.7676 12.642C21.9095 14.024 21.9017 14.8277 21.6551 15.0865C20.7979 15.9937 20.6733 17.1071 20.0898 17.7406C19.6467 18.2214 19.7441 19.2199 19.6213 20.2737C19.5011 21.2827 21.3656 21.5257 21.5112 20.314Z" fill="#E8A63C"/>
<path d="M28.5882 12.0636L27.9258 11.8907C27.9626 11.8241 27.9942 11.746 28.0197 11.6512C28.2171 10.944 28.5531 11.6258 28.9243 10.4764C29.0348 10.1395 28.9216 9.51475 30.5825 9.81394C31.08 9.90344 31.6512 10.0271 32.2057 9.25065C32.5207 8.80844 32.6471 8.70228 33.0445 8.57593C33.4209 8.45222 33.642 8.08634 33.8061 7.69678C33.8544 7.7968 33.9061 7.90209 33.9597 8.00913C33.1437 9.13571 33.3648 9.56827 33.5675 9.91835C33.8465 10.4088 33.4157 10.6852 33.5771 11.1406C33.8509 11.9188 34.115 11.5477 34.286 11.9829C34.4098 12.2996 33.9491 13.2218 34.759 13.9307C34.9336 14.0825 35.0696 14.1141 35.188 14.0921L35.2626 14.6914C35.1617 14.6984 35.0582 14.7335 34.959 14.7984C34.637 15.0099 34.4642 15.474 34.5221 15.9101L34.2009 15.9356C34.0816 14.9818 33.5833 14.0939 32.7445 13.5095C33.0779 12.905 32.9963 11.8381 32.8462 11.4424C32.6365 10.8826 32.147 10.4816 31.5661 10.8545C30.9949 11.2195 31.4942 11.8697 31.245 11.9566C30.9318 12.0662 31.0528 11.2634 30.4904 11.2687C30.1035 11.2748 30.1658 11.6416 30.0342 11.6968C29.7543 11.8162 29.3805 11.2266 28.79 11.7872C28.7383 11.8363 28.6619 11.9337 28.5882 12.0636Z" fill="#FFE693"/>
<path d="M28.617 17.9474C28.5504 17.8184 28.3345 17.4675 28.6434 17.4017C28.8961 17.3473 29.5173 17.2297 29.548 17.306C29.5918 17.4113 29.1654 17.965 29.0689 18.0773C28.8645 18.3133 28.7065 18.1282 28.617 17.9474Z" fill="#EB5C28"/>
<path d="M28.6802 16.2418C28.2082 16.1242 28.302 15.8154 28.4696 15.3819C28.5933 15.0687 28.8346 14.8581 29.0627 15.181C29.2391 15.4337 29.7699 16.1672 29.6901 16.3392C29.6199 16.4909 28.8583 16.2865 28.6802 16.2418Z" fill="#EB5C28"/>
<path d="M29.2048 13.2014C28.6845 13.0092 29.0521 12.2687 29.1679 12.0415C29.4373 11.5177 30.0524 12.2564 30.3322 12.1371C30.4665 12.0818 30.3533 11.6861 30.5797 11.6817C30.9824 11.6721 30.8306 12.4416 31.3562 12.3336C32.0879 12.181 31.2246 11.5747 31.5896 11.1842C32.059 10.6789 32.5336 11.2334 32.5731 11.6923C32.5977 11.9537 32.6854 12.7083 32.3222 13.2575C31.386 12.7925 30.2375 12.7943 29.2048 13.2014Z" fill="#61A22E"/>
<path d="M30.235 19.0178C30.1061 18.9801 29.8113 18.9871 29.9341 18.695C30.0482 18.4221 30.3096 17.7096 30.3807 17.7368C30.4781 17.7763 30.5992 18.6827 30.6115 18.8204C30.6404 19.1073 30.414 19.0722 30.235 19.0178Z" fill="#EB5C28"/>
<path d="M30.2084 14.5796C30.0891 14.1865 30.3725 14.083 30.605 14.0812C30.7506 14.0803 31.0384 14.0716 30.9665 14.5032C30.9121 14.8393 30.7533 15.6754 30.6445 15.6974C30.5146 15.7202 30.2654 14.7691 30.2084 14.5796Z" fill="#EB5C28"/>
<path d="M31.4898 18.0921C31.3775 17.842 31.2134 17.4358 31.2608 17.3866C31.3573 17.2875 31.7934 17.4577 31.9654 17.5358C32.0821 17.5893 32.147 17.6639 32.1689 17.7402C32.0514 17.8455 31.9531 17.9815 31.8882 18.1386C31.7408 18.2202 31.5662 18.2649 31.4898 18.0921Z" fill="#EB5C28"/>
<path d="M31.6881 16.1521C31.6696 16.053 32.118 15.4002 32.247 15.2694C32.5997 14.9097 32.755 15.3467 32.8997 15.666C33.0419 15.9836 33.1463 16.3873 32.6549 16.3548C32.3382 16.3355 31.7249 16.346 31.6881 16.1521Z" fill="#EB5C28"/>
<path d="M32.6209 19.5125C31.3829 18.9027 32.3041 17.5051 33.0464 17.7946C33.9168 18.1298 33.9975 19.3467 34.6556 19.6924C35.218 19.9881 35.8181 19.4309 35.5224 18.8659C35.3759 18.5816 34.6293 18.1605 34.9627 17.7525C35.2408 17.412 35.8357 17.9008 36.0533 18.2114C36.8824 19.3801 36.4744 20.6997 35.5575 21.5279C35.0144 22.0175 32.5586 22.3448 32.7077 21.1252C32.7779 20.5435 33.2087 20.9243 33.4816 21.034C33.9063 21.205 34.3116 20.8006 34.0686 20.3268C33.7931 19.7854 32.9982 19.6985 32.6209 19.5125Z" fill="#F6E3BC"/>
<path d="M34.5811 19.0477C34.2476 18.6652 34.1187 18.3169 33.8423 18.0203C34.1713 17.3509 34.2871 16.6279 34.2011 15.9356L34.5223 15.9102C34.5328 15.9909 34.5521 16.0672 34.5775 16.1444C34.7486 16.6375 35.1987 16.8367 35.5778 16.5858C35.9595 16.3383 36.1314 15.7356 35.9612 15.2425C35.834 14.8757 35.5541 14.6713 35.2628 14.6915L35.1882 14.0922C35.4251 14.0439 35.5997 13.7711 35.8928 13.7737C36.1305 13.7755 36.3516 13.9737 36.5991 14.1527C37.1132 15.4223 37.9933 17.4228 38.7698 19.0609L38.3425 19.2153C38.3267 19.1864 38.3109 19.1574 38.2907 19.1293C38.0828 18.8275 37.6923 18.7608 37.4238 18.9776C37.2536 19.1144 37.1703 19.332 37.1852 19.5505L36.8246 19.5733C36.8237 19.0662 36.6605 18.545 36.3122 18.0519C36.0718 17.7141 35.2733 17.1219 34.6697 17.5816C34.209 17.9273 34.5802 18.6415 34.9303 18.896C35.3891 19.2285 34.975 19.5022 34.5811 19.0477Z" fill="#FFE693"/>
<path d="M33.962 11.1615C33.7751 10.7728 34.3235 10.5596 34.0734 10.1201C33.8848 9.79279 33.5733 9.59977 34.1883 8.69604C35.128 10.4868 36.1397 12.8453 36.4222 13.5542C35.5895 13.1997 35.1895 14.0368 34.7964 13.6332C34.5411 13.3717 34.7543 12.4689 34.685 12.1091C34.549 11.4134 34.1532 11.5608 33.962 11.1615Z" fill="#CCEC57"/>
<path d="M35.356 16.4008C35.1911 16.5438 35.0411 16.3701 35.02 16.0068C34.9972 15.6471 35.1112 15.2374 35.2762 15.0943C35.4411 14.9487 35.5921 15.1251 35.6131 15.4857C35.6359 15.8463 35.5192 16.256 35.356 16.4008Z" fill="#FFAB60"/>
<path d="M36.2734 24.3173L36.3787 23.811C36.949 23.9207 37.8045 23.5548 38.2397 22.7792C38.5178 22.28 38.5301 20.8375 37.6755 20.8533C37.3877 20.8595 37.1236 20.9779 36.9253 21.2078L36.3024 21.1043C36.6419 20.6445 36.8236 20.1172 36.8244 19.5732L37.1851 19.5504C37.1938 19.6767 37.2377 19.8022 37.314 19.9145C37.5246 20.2154 37.9124 20.2839 38.1809 20.0663C38.4275 19.8689 38.4897 19.5048 38.3423 19.2152L38.7696 19.0608C39.1241 19.8066 39.4575 20.4795 39.7251 20.9726C39.783 21.7412 39.3478 22.5011 39.7585 23.1872C39.9699 23.5434 40.6718 23.7917 41.1676 23.7873C41.4457 24.434 41.6361 24.9402 41.7054 25.1008C42.1187 26.073 41.7914 25.9712 41.0518 25.6562C40.5595 25.4439 40.0585 25.2675 39.5347 25.1078C39.5663 24.7042 39.3908 24.205 39.0873 24.0549C38.7574 23.8891 38.2713 24.0497 38.0256 24.7042C37.4772 24.5735 36.8964 24.4489 36.2734 24.3173Z" fill="#FFE693"/>
<path d="M36.2152 23.2528C36.1319 22.8597 36.9829 22.9176 36.9321 22.2683C36.8838 21.6076 37.1128 21.1259 37.5734 21.1189C38.2008 21.1119 37.9893 22.2446 37.841 22.6939C37.5717 23.5177 36.3714 23.9986 36.2152 23.2528Z" fill="#AA6141"/>
<path d="M38.2891 24.7666C38.4321 24.2463 38.7374 24.1585 38.9813 24.2796C39.1989 24.3867 39.3191 24.7517 39.2875 25.0333C38.9629 24.9377 38.6312 24.8508 38.2891 24.7666Z" fill="#FD8580"/>
<path d="M50.1005 18.3544L50.0646 18.2974C50.3085 17.9903 50.3559 17.5393 50.3453 16.969C50.2594 12.2609 46.8507 8.50736 42.0794 7.95372C40.9256 7.79141 39.5551 7.8809 38.2908 8.13535C37.5344 8.21519 36.9413 8.49771 36.5351 8.99695L36.3886 9.17243L36.3991 9.19963C36.3614 9.19174 36.3245 9.18208 36.2868 9.17945C35.8542 9.14348 35.4243 9.28737 35.0812 9.40845C34.9119 9.46812 34.3986 9.64184 34.2626 10.1034C34.2205 10.2367 34.2284 10.3701 34.2828 10.4798C34.2863 10.4877 34.2907 10.4947 34.2951 10.5017C33.8888 10.7228 33.6449 11.1755 33.7432 11.6344C33.7616 11.7178 33.7923 11.8117 33.8318 11.9064C33.6247 12.0757 33.6002 12.3469 33.5923 12.446C33.5861 12.5215 33.5826 12.6145 33.587 12.7136C33.3677 12.7759 33.1799 12.9575 33.093 13.1988C32.807 13.1971 32.4973 13.3682 32.2314 13.663C31.9472 13.9779 31.6567 14.471 31.726 14.9887C31.7524 15.1905 31.8313 15.3555 31.8998 15.4985C31.9243 15.5494 31.9489 15.5994 31.9691 15.6511C31.9805 15.6775 31.9937 15.7012 32.0059 15.7266L31.9814 15.745C31.7199 15.9407 31.4084 16.389 31.7998 18.0868C31.9603 18.7685 32.292 19.3678 32.7324 19.8635C35.3164 23.4258 40.2947 25.0016 43.0243 25.6377C43.1173 25.6588 43.2103 25.6763 43.3033 25.6886C44.5729 25.8658 45.7995 25.2587 46.4269 24.1426C46.483 24.0435 46.5366 23.9461 46.5866 23.854L46.6383 23.7583C46.6796 23.7662 46.7191 23.7767 46.762 23.7829C47.1665 23.839 47.4991 23.7627 47.7772 23.5495C48.1413 23.2696 48.3115 22.7397 48.2168 22.272C48.3598 22.258 48.4949 22.2053 48.6213 22.1106C48.809 21.9693 48.8687 21.7912 48.8871 21.6666L48.888 21.6587C49.1108 21.6491 49.3749 21.578 49.5732 21.3946C49.7294 21.2498 49.8294 21.0594 49.8593 20.8462C49.8856 20.6874 49.854 20.4909 49.7882 20.2891C49.8803 20.2663 49.9724 20.225 50.0628 20.1662C50.8586 19.6758 50.3646 18.7879 50.1005 18.3544Z" fill="black"/>
<path d="M49.7423 18.5826C50.0169 19.0125 50.3705 19.5653 49.9696 19.8329C49.5888 20.0865 49.3185 19.6118 48.9667 19.4776C48.6385 19.353 48.2832 19.6627 47.9015 19.5372C47.2049 19.31 47.0171 18.7326 46.6688 18.6502C46.2687 18.5537 46.0967 18.744 45.6887 18.6256C45.3299 18.5221 45.4027 18.2773 45.1158 18.122C44.8289 17.9675 44.2296 18.0667 43.647 17.5727C43.3864 17.3499 43.0679 17.5455 42.2976 16.7681C41.9878 16.4567 41.8554 15.8214 41.8501 15.3345C43.9287 16.7997 46.3389 18.0176 48.5798 18.5133C49.1457 18.6388 49.5072 18.6695 49.7423 18.5826Z" fill="#A2BC1B"/>
<path d="M49.6311 20.8324C49.5995 21.1807 49.1564 21.2737 48.873 21.2474C48.3914 21.1991 47.886 20.8683 47.6412 20.7201C47.2972 20.5121 46.9182 20.6051 46.0013 20.0462C45.3749 19.6637 45.0248 19.4092 44.3413 19.2092C43.8368 19.06 43.1664 18.6283 42.4944 17.8685C42.1995 17.536 40.9703 17.5325 40.7422 16.6779C41.0633 16.892 41.5573 16.8411 41.7582 16.5042C41.8696 16.7384 42.0013 16.9472 42.1355 17.0903C42.7348 17.7246 43.0919 17.457 43.6122 17.9168C44.1851 18.4213 44.5852 18.2897 44.8704 18.4432C45.1573 18.5967 45.3064 18.7845 45.6626 18.8872C46.0715 19.0047 46.2321 18.9109 46.6304 19.0074C46.9787 19.0898 46.9937 19.5549 47.6921 19.7654C48.2975 19.9462 48.6484 19.575 48.8915 19.6645C49.1468 19.7558 49.6618 20.5174 49.6311 20.8324Z" fill="#A66631"/>
<path d="M49.9206 16.977C49.9443 18.2272 49.6591 18.4273 48.2939 18.1237C43.2234 16.9998 37.7651 11.781 36.8789 9.24794C37.308 8.74607 37.952 8.40739 38.66 8.29947C45.037 7.32819 49.8205 11.4985 49.9206 16.977ZM48.1737 15.5038C48.2167 15.3318 48.0412 15.0958 47.7832 14.9782C47.5235 14.8607 47.2796 14.9063 47.2357 15.08C47.1927 15.2537 47.3682 15.488 47.6253 15.6056C47.8859 15.7231 48.1298 15.6775 48.1737 15.5038ZM46.6487 16.1873C46.7075 16.1039 46.6716 15.9618 46.5707 15.8723C46.4671 15.7828 46.3373 15.7775 46.2785 15.8635C46.2197 15.9478 46.2557 16.0881 46.3575 16.1768C46.4601 16.2689 46.59 16.2715 46.6487 16.1873ZM46.7628 12.6426C46.8286 12.3838 46.5873 12.0539 46.2267 11.9056C45.8679 11.7547 45.5213 11.8442 45.4581 12.103C45.3941 12.3601 45.6354 12.6909 45.9942 12.8391C46.3548 12.9883 46.6988 12.8988 46.7628 12.6426ZM45.7731 14.6238C45.8556 14.436 45.7126 14.1245 45.4546 13.9262C45.1993 13.7279 44.9264 13.7174 44.8474 13.9034C44.7676 14.0894 44.9106 14.4035 45.1659 14.6018C45.4213 14.8001 45.6941 14.8098 45.7731 14.6238ZM44.3579 12.7882C44.3789 12.6365 44.2113 12.4355 43.9841 12.3417C43.7577 12.246 43.5559 12.2925 43.5349 12.4461C43.512 12.597 43.6788 12.7988 43.906 12.8944C44.1324 12.9883 44.3359 12.9409 44.3579 12.7882ZM44.1692 10.8457C44.3043 10.8606 44.414 10.7904 44.414 10.6869C44.4149 10.5842 44.3043 10.4877 44.1692 10.4728C44.0341 10.457 43.9235 10.5289 43.9244 10.6316C43.9253 10.7351 44.0341 10.829 44.1692 10.8457ZM43.4068 13.9543C43.4734 13.8587 43.4331 13.7007 43.3208 13.599C43.2067 13.4981 43.0593 13.4919 42.9953 13.5858C42.9286 13.6823 42.9663 13.8394 43.0786 13.9412C43.1935 14.0421 43.3401 14.0473 43.4068 13.9543ZM42.1372 12.2495C42.1933 12.1425 42.117 11.9819 41.9705 11.8942C41.8239 11.8056 41.6599 11.8196 41.6055 11.9275C41.5519 12.0354 41.6265 12.196 41.7722 12.2846C41.9187 12.3741 42.0836 12.3583 42.1372 12.2495ZM40.736 12.3276C40.7895 12.253 40.7579 12.1249 40.6666 12.0433C40.5745 11.9617 40.4569 11.9582 40.4043 12.0328C40.3508 12.1091 40.3824 12.2372 40.4736 12.3162C40.5657 12.3978 40.6824 12.4039 40.736 12.3276ZM39.8594 11.0466C40.0761 11.1238 40.2683 11.0536 40.2841 10.8913C40.3025 10.7264 40.1411 10.5307 39.9226 10.4526C39.7068 10.3754 39.5172 10.4438 39.4988 10.6079C39.4804 10.7711 39.6436 10.9668 39.8594 11.0466Z" fill="#C18B3C"/>
<path d="M46.1075 12.0969C46.2961 12.175 46.4207 12.3444 46.3874 12.4786C46.3532 12.6128 46.175 12.6593 45.9864 12.5813C45.8004 12.504 45.6767 12.3329 45.71 12.1978C45.7434 12.0653 45.9215 12.0197 46.1075 12.0969Z" fill="#A66631"/>
<path d="M45.3719 14.1183C45.4824 14.2042 45.5456 14.3367 45.5105 14.4183C45.4754 14.499 45.3587 14.4929 45.2482 14.4096C45.1376 14.3236 45.078 14.1884 45.1122 14.1095C45.1446 14.0288 45.2622 14.0323 45.3719 14.1183Z" fill="#A66631"/>
<path d="M41.4427 15.0424C41.5945 15.5645 41.8981 16.3761 41.3594 16.4427C40.6443 16.5314 40.4381 15.5452 40.1424 15.3302C39.5493 14.8968 39.1273 15.2512 38.4622 14.6537C37.9182 14.1597 37.9946 13.6842 37.3734 13.2701C37.1575 13.1262 36.6267 13.3227 36.1143 12.4436C35.7247 11.768 36.1748 11.6267 36.4117 11.3214C36.6284 11.0432 36.9408 10.8765 37.1988 10.7949C38.0604 12.1523 39.6002 13.6842 41.4427 15.0424Z" fill="#D96025"/>
<path d="M40.1165 15.661C39.6821 15.3004 39.0539 15.6593 38.4204 15.11C37.8168 14.5853 37.9387 13.9211 37.1833 13.6211C36.7086 13.4307 36.1682 13.0964 35.847 12.4146C35.747 12.1997 35.7014 12.0128 35.6935 11.8443C35.9409 10.9073 37.064 10.6704 37.064 10.6704C36.7999 10.5072 36.4937 9.86666 36.4305 9.62187C36.0137 9.50254 35.568 9.59379 35.1442 9.68592C34.9354 9.73154 34.6897 9.80963 34.6345 10.0167C34.6231 10.0597 34.6222 10.1079 34.6415 10.1492C34.702 10.2782 34.924 10.2808 34.9565 10.4194C34.9758 10.5001 34.9091 10.5809 34.8336 10.616C34.7573 10.6502 34.6713 10.6554 34.5906 10.6774C34.2607 10.7713 34.0852 11.1696 34.1563 11.5048C34.2273 11.8399 34.4476 12.2023 34.7801 12.2857C35.139 12.376 35.2267 13.0402 35.2925 13.1648C35.6672 13.8597 36.1199 13.4447 36.2822 13.5535C36.9043 13.9676 36.2129 14.7134 36.72 15.2442C37.1561 15.6996 37.3895 14.7099 37.8949 15.2065C38.2818 15.5864 37.7501 16.1699 38.1914 16.4796C38.6898 16.828 38.6863 15.9549 39.325 16.1892C39.9076 16.4059 39.4163 17.0719 39.8146 17.1043C40.1542 17.1298 39.8997 16.6463 40.4911 16.384C40.3674 16.1348 40.3876 15.8856 40.1165 15.661Z" fill="#A2BC1B"/>
<path d="M47.4103 21.9159C46.911 21.8273 46.8645 22.0993 46.2635 21.9642C45.9187 21.887 45.802 21.6817 45.3615 21.6422C45.3817 21.6738 44.9799 21.4272 44.7333 21.3184C44.6008 21.2596 44.4569 21.2087 44.3139 21.2307C44.07 21.2675 43.9059 21.4948 43.784 21.7089C43.662 21.9238 43.533 22.1616 43.304 22.252C43.1698 22.3046 43.0215 22.2976 42.8776 22.2897C42.2924 22.259 41.6431 22.1976 41.2518 21.7615C41.1281 21.6229 41.0403 21.4553 40.9228 21.3105C40.8052 21.1666 40.6429 21.0403 40.4569 21.035C40.3314 21.0315 40.2121 21.0824 40.091 21.114C39.5023 21.2684 38.8258 20.8981 38.6389 20.3191C38.5863 20.1567 38.5661 19.9778 38.4643 19.8409C38.3924 19.7452 38.2879 19.6794 38.1862 19.6171C37.8694 19.4224 37.5527 19.2276 37.2359 19.0328C37.1649 18.9898 37.092 18.9468 37.014 18.9179C35.7584 18.1089 33.3982 15.1336 33.3622 14.0597C33.3192 12.769 31.925 13.7903 32.0628 14.7239C32.0961 14.9511 32.2198 15.145 32.305 15.3574C32.6235 16.1505 33.543 16.4032 34.0984 17.0999C34.4177 17.5 34.4835 18.0282 34.8345 18.3853C35.5075 19.0679 35.9549 18.7766 36.4603 19.3311L36.4726 19.325C36.7999 19.561 36.8499 20.0286 37.0631 20.3752C37.1851 20.5744 37.3675 20.7358 37.5799 20.8332C37.7896 20.9297 38.0265 20.9648 38.2195 21.0894C38.4827 21.2596 38.6214 21.5641 38.8328 21.7948C39.1022 22.0897 39.5023 22.259 39.9015 22.2485C40.1708 22.2414 40.4402 22.1563 40.7061 22.2028C41.0368 22.2607 41.3001 22.5108 41.5054 22.7758C41.6694 22.989 41.8133 23.2224 42.0204 23.3935C42.2275 23.5646 42.5205 23.6655 42.7688 23.5619C43.0549 23.4417 43.1794 23.1048 43.4207 22.9091C43.6769 22.7021 44.0682 22.6828 44.3429 22.8644C44.4982 22.9662 44.6201 23.1153 44.7877 23.1952C45.4396 23.5031 45.6204 23.0644 46.0301 23.1601C46.4732 23.2627 47.0654 23.5602 47.5199 23.2127C47.9349 22.8942 48.0043 22.0221 47.4103 21.9159Z" fill="#FFBC1F"/>
<path d="M45.9334 23.5733C45.8983 23.5724 45.8386 23.5847 45.7509 23.618C45.5877 23.6786 45.3657 23.7619 45.0568 23.7189C44.9103 23.6987 44.7629 23.6531 44.6067 23.5785C44.4558 23.5075 44.3391 23.4074 44.2452 23.3267C44.1961 23.2846 44.1505 23.2451 44.1092 23.2179C43.9934 23.1416 43.7951 23.1521 43.6881 23.239C43.6284 23.2864 43.5679 23.3671 43.5021 23.4522C43.3705 23.6242 43.2064 23.8382 42.9327 23.9532C42.7686 24.0216 42.5905 24.0435 42.4036 24.0181C42.1755 23.9856 41.9429 23.8804 41.7499 23.7207C41.5525 23.5566 41.4077 23.3592 41.2796 23.1846C41.2428 23.1346 41.2068 23.0846 41.1691 23.0354C40.9787 22.7889 40.7988 22.6494 40.633 22.6204H40.6321C40.5181 22.6046 40.3917 22.6213 40.2583 22.6388C40.1487 22.6537 40.0355 22.6687 39.9126 22.6722C39.3932 22.6862 38.8703 22.4642 38.5193 22.0817C38.4255 21.979 38.3491 21.8737 38.2763 21.7711C38.1754 21.6316 38.0885 21.5105 37.9894 21.4456C37.9201 21.4008 37.8174 21.3684 37.7095 21.3333C37.6156 21.3026 37.5094 21.2683 37.4033 21.2192C37.1155 21.0867 36.8663 20.8665 36.7005 20.5971C36.604 20.4392 36.5373 20.2707 36.4785 20.1216C36.4381 20.0189 36.4013 19.9233 36.3592 19.8443L36.1468 19.6171C35.9819 19.4363 35.8441 19.3933 35.6169 19.3223C35.323 19.2293 34.9571 19.1152 34.5324 18.6835C34.2973 18.444 34.1771 18.158 34.0709 17.9053C33.9876 17.7061 33.9086 17.5192 33.7875 17.3894C33.6349 17.227 33.4918 17.1639 33.369 17.0586C33.0224 16.7594 32.6294 16.1698 32.2126 15.9373C31.8792 16.2382 32.0213 17.27 32.188 18.0448C32.3214 18.6668 32.5837 19.2565 32.9768 19.7566C35.5809 23.0767 40.4987 24.613 43.1204 25.2237C44.2777 25.493 45.4736 24.9701 46.0571 23.9348C46.1115 23.8365 46.1641 23.7417 46.2133 23.6514C46.2045 23.6487 46.1948 23.6461 46.1861 23.6443C46.0983 23.6171 46.0132 23.5917 45.9334 23.5733Z" fill="#C18B3C"/>
<path d="M42.2023 18.0291C41.9347 17.6834 40.8757 17.8747 40.4115 16.8525C40.1317 17.1394 39.9465 17.4869 39.6859 17.4649C39.2894 17.436 39.5017 16.4305 39.2174 16.4085C38.9314 16.3875 38.5453 17.1271 38.0785 16.7411C37.5872 16.3313 38.0057 15.5969 37.7486 15.4022C37.3512 15.1012 37.1511 15.997 36.6028 15.4724C35.9561 14.8555 36.6379 14.2028 36.1755 13.9413C36.0061 13.8448 35.5604 14.0782 35.1858 13.3833C35.1191 13.2604 35.0331 13.12 34.9559 12.934C34.998 12.8287 34.9734 12.6998 34.8901 12.6226C34.7848 12.5225 34.619 12.5173 34.5014 12.4322C34.4356 12.3848 34.3891 12.3155 34.3277 12.2611C34.2662 12.2084 34.1767 12.1716 34.1039 12.2067C34.0241 12.2462 34.003 12.3479 33.9916 12.4365C33.982 12.5138 33.9714 12.5918 33.9793 12.6691C33.9881 12.7533 34.0179 12.8349 34.0565 12.9103C34.0811 12.9586 34.1092 13.0042 34.1452 13.0446C35.3428 14.394 37.1178 16.8964 38.5567 17.5869C39.4631 18.0221 39.5613 17.5421 40.3598 17.9659C40.6827 18.1379 41.0468 18.0001 41.267 18.0493C41.5855 18.1212 41.5373 18.5906 42.1365 18.5494C42.2918 18.5389 42.4173 18.4853 42.5182 18.4037C42.4182 18.2949 42.3111 18.173 42.2023 18.0291Z" fill="#FFBC1F"/>
<path d="M48.4717 21.3095C48.3883 21.2744 48.3076 21.2437 48.2181 21.235C47.6908 21.192 46.9687 21.1472 46.0904 20.4207C45.5236 19.9504 44.8384 19.7758 44.0505 19.3705C43.6907 19.1871 43.2538 19.0888 42.7238 18.6054C42.5466 18.6756 42.343 18.7238 42.129 18.7396C41.9859 18.7493 41.8806 18.7326 41.7973 18.7037C41.5262 18.6036 41.4858 18.3518 41.2445 18.2974C41.0269 18.2474 40.8102 18.4062 40.4865 18.2342C39.688 17.8105 39.3959 18.3518 38.5342 17.8342C36.7435 16.7593 34.3227 13.5656 34.0042 13.2375C33.9218 13.1532 33.8314 13.0646 33.7156 13.0444C33.5831 13.0225 33.4401 13.1085 33.3988 13.2375C33.3541 13.3787 33.426 13.5323 33.5261 13.6419C33.6261 13.7516 33.7533 13.8332 33.8524 13.9429C34.0771 14.1894 34.1744 14.5237 34.3131 14.8273C34.5245 15.2897 36.0503 16.2996 36.6417 16.8708C37.3691 17.5718 37.9359 18.3931 38.6685 18.6264C39.6968 18.9555 40.2057 19.7732 41.1893 20.0864C42.1737 20.4005 43.581 20.0768 44.3409 20.8059C45.0419 21.2823 45.9325 21.5692 46.3308 21.6842C46.9231 21.857 46.9845 21.4947 47.4846 21.5833C47.7329 21.6289 48.0426 22.036 48.4594 21.764C48.6507 21.6403 48.5945 21.4762 48.4717 21.3095Z" fill="#D96025"/>
<path d="M43.8767 20.9227C43.4915 20.6937 43.0186 20.7068 42.5773 20.6349C42.0894 20.555 41.6016 20.5094 41.1585 20.2892C40.3109 19.8671 39.495 19.3802 38.7211 18.8344C38.6009 18.7502 38.3157 18.6248 38.3052 18.623C37.441 18.1264 37.2041 17.6842 36.6618 17.156C35.8845 16.3988 34.1876 15.2345 34.0481 14.7396C34.0182 14.6326 34.0437 14.5097 33.9937 14.4097C33.648 13.7218 33.4453 14.2158 33.6225 14.5624C33.7138 14.7414 33.8252 14.909 33.927 15.0827C34.0542 15.2985 36.0775 18.3045 37.6165 18.8573C38.0043 18.9968 38.3579 19.3723 38.7536 19.5881C38.879 19.6574 39.0071 19.7469 39.0492 19.8838C39.0843 19.997 39.0519 20.1181 39.051 20.2365C39.0492 20.4726 39.1817 20.7042 39.3853 20.8226C39.5888 20.9402 39.8556 20.9411 40.06 20.8226C40.1284 20.7823 40.1907 20.7305 40.2636 20.6972C40.5075 20.5857 40.7997 20.7217 40.9865 20.9148C41.1734 21.1078 41.298 21.3543 41.4867 21.5456C41.7402 21.8036 42.0965 21.944 42.4571 21.979C42.8598 22.0185 43.316 21.9036 43.531 21.5597C43.5854 21.4719 43.6214 21.3728 43.6819 21.2885C43.7416 21.2043 43.9706 21.063 44.1733 21.0973C44.2171 21.1052 43.9934 20.992 43.8767 20.9227Z" fill="#A2BC1B"/>
<path d="M46.4454 40.5134C46.2208 40.4055 46.1269 40.1353 46.2357 39.9106C46.3445 39.6869 46.6147 39.593 46.8385 39.7018C47.9949 40.2634 49.0565 40.9539 49.8953 41.9497C50.6499 42.8464 51.214 43.9774 51.486 45.4646C52.1169 45.2865 52.7284 45.2075 53.3198 45.2338C54.07 45.2663 54.7868 45.4672 55.4686 45.8454C55.5352 45.877 55.5958 45.9243 55.6423 45.9884C55.7888 46.1902 55.7449 46.4718 55.5431 46.6192L52.4582 48.875C52.3494 48.9593 52.2037 48.9935 52.0616 48.9549C51.6071 48.8303 51.2184 48.582 50.957 48.0924L50.9359 48.0555C50.7113 47.6133 50.6034 46.9816 50.6692 46.0673C50.4612 44.524 49.9357 43.3948 49.2066 42.5297C48.466 41.6505 47.5026 41.0276 46.4454 40.5134ZM51.5545 46.3841C51.5343 46.9772 51.6054 47.3791 51.7422 47.6475L51.7536 47.6739C51.8431 47.8353 51.9651 47.9424 52.1081 48.0125L54.3885 46.3455C54.0305 46.2218 53.6602 46.1533 53.2777 46.1358C52.7284 46.1121 52.1537 46.1963 51.5545 46.3841ZM42.3023 40.3511C42.2979 40.1019 42.4971 39.8966 42.7463 39.8922C42.9954 39.8887 43.2008 40.087 43.2051 40.3362C43.2323 41.7558 42.9665 42.8315 42.4743 43.5826C42.1882 44.0186 41.8285 44.3459 41.4047 44.567C40.9871 44.7855 40.5124 44.8978 39.9947 44.9074C39.0463 44.9259 37.9399 44.5951 36.751 43.944C36.8387 44.6074 36.8624 45.211 36.8054 45.7383C36.7141 46.5929 36.4132 47.2589 35.8411 47.68L35.8113 47.6993C35.6007 47.8318 35.3226 47.7669 35.1901 47.5563L33.0914 44.1809C32.9861 44.0283 32.9808 43.8203 33.094 43.6606C33.4765 43.1219 33.9398 42.7666 34.482 42.592C35.0094 42.4226 35.599 42.4305 36.2482 42.6139C36.3053 42.6279 36.3579 42.6525 36.4053 42.6859C37.7565 43.5685 38.9901 44.0239 39.9798 44.0055C40.358 43.9976 40.6975 43.9195 40.9888 43.7668C41.2757 43.6168 41.5223 43.3922 41.7206 43.0886C42.1145 42.4884 42.326 41.5838 42.3023 40.3511ZM35.7551 43.422C35.384 43.3483 35.0515 43.3588 34.7584 43.4527C34.4838 43.5413 34.2355 43.708 34.0126 43.9546L35.6402 46.5727C35.7832 46.3253 35.8701 46.0112 35.9104 45.6409C35.9754 45.0294 35.9122 44.2766 35.7551 43.422Z" fill="#5A2B00"/>
<path d="M41.7718 40.6896L42.2851 40.6791C43.2686 40.7378 44.4487 40.6896 45.7964 40.5352C46.4808 40.4571 47.0783 40.3667 47.474 40.307L47.4959 40.3035L47.4977 40.35L48.1768 40.2167C48.7945 40.0956 49.5412 39.9359 49.9825 39.7911L50.451 39.6973C50.9099 39.6051 51.9786 39.0366 52.3567 38.7207L52.5243 38.5812L52.5585 38.3645C52.6498 37.7907 52.6963 37.087 52.7489 36.2719L52.7788 35.82C52.8367 34.9716 53.3815 28.8333 53.6658 25.8475L53.7694 24.7937C53.9378 23.0846 54.2282 20.6779 54.3941 19.5022L54.5116 18.666L53.8115 18.8248L56.3937 11.4775L53.8852 10.7466L54.38 9.06636L51.7733 8.48991L52.0163 7.32736L49.2455 6.85181L48.7506 9.92007L46.7984 20.4383L36.5486 22.4836L31.2123 22.6661L30.3516 22.6757L30.9965 24.6235C32.7486 29.9327 34.735 35.9499 37.197 40.3378L37.3532 40.6168L37.6726 40.6343C38.1955 40.6633 38.7298 40.6834 39.3072 40.6949L39.3721 40.6957L39.5125 40.6984L40.1302 40.7106C40.6461 40.7063 41.1857 40.7019 41.7718 40.6896Z" fill="black"/>
<path fill-rule="evenodd" clip-rule="evenodd" d="M48.7897 19.9092L51.3236 7.79938L49.7277 7.52563L47.6895 20.1646L48.7897 19.9092Z" fill="#FFEFA1"/>
<path fill-rule="evenodd" clip-rule="evenodd" d="M50.716 19.462L53.6447 9.50089L51.6118 9.05078L49.2139 19.8103L50.716 19.462Z" fill="#FFD87B"/>
<path fill-rule="evenodd" clip-rule="evenodd" d="M53.1713 18.8917L55.6411 11.8646L53.61 11.2732L51.1655 19.3576L53.1713 18.8917Z" fill="#FFC24E"/>
<path d="M33.7462 23.2214L31.1553 23.2495C32.9513 28.6683 35.0816 35.376 37.7051 40.0526C38.2412 40.0824 38.779 40.1017 39.3186 40.1123" fill="#DBA45F"/>
<path d="M47.0545 21.103L37.3838 22.7359L42.2691 40.0943C44.3293 40.2259 46.7176 39.8294 47.6081 39.6969C47.5678 39.3292 47.552 34.722 47.5221 33.9034" fill="#E5BC8A"/>
<path d="M50.3836 24.5752L50.4977 20.1724L47.5996 20.8287L47.7883 27.8461C47.7812 28.8349 47.8567 30.4046 47.8734 31.0416C47.8909 31.6786 48.0646 39.6445 48.0646 39.6445C48.0646 39.6445 49.7141 39.3225 49.9896 39.1654C50.0274 38.7074 50.0318 38.202 50.0265 37.8256C50.0397 37.8213 50.1599 33.2123 50.1599 33.2123C50.2064 32.5147 50.3669 25.2104 50.3836 24.5752Z" fill="#DBA45F"/>
<path d="M50.9848 20.062L50.8348 24.4043C50.7725 25.5177 50.5365 33.0677 50.5066 33.9451L50.3777 37.6925C50.3645 38.4743 50.3434 39.0805 50.3364 39.1262C50.6619 39.0604 51.6446 38.5567 51.9833 38.2742C52.086 37.6284 52.1298 36.7897 52.1974 35.7894C52.2623 34.826 52.9625 26.9742 53.1889 24.7359C53.3529 23.0794 53.6451 20.6437 53.8171 19.4207" fill="#DBA45F"/>
<path d="M56.2339 8.70144C56.1006 8.65231 56.7209 7.59416 56.7095 5.78672C56.6911 4.90669 56.4384 3.81959 55.6356 3.02906C54.8599 2.25431 53.4886 1.86036 52.2918 2.29818C51.1363 2.71758 50.3431 3.82222 50.2001 4.87159L50.1009 5.59808L49.5947 5.08392C49.084 4.56626 48.1575 4.7277 47.6205 5.12253C47.0686 5.50946 46.7975 6.15172 46.6536 6.66237C46.3895 7.72665 46.4194 8.42155 46.3176 8.41716C46.2605 8.4198 46.0684 7.75736 46.2272 6.56936C46.3307 5.99116 46.5466 5.22519 47.2581 4.64084C47.6074 4.36797 48.0434 4.16178 48.5488 4.09597C49.0445 4.03368 49.6526 4.15037 50.0948 4.56977L49.4885 4.7821C49.6333 3.46512 50.5677 2.10954 52.0277 1.57082C53.5535 1.02332 55.2004 1.53572 56.1427 2.52806C57.1017 3.5397 57.3088 4.83387 57.257 5.79374C57.1122 7.77579 56.2804 8.75145 56.2339 8.70144ZM44.6531 5.92711C44.5084 5.91307 44.6514 5.06725 44.1574 3.90207C43.7003 2.76759 42.4465 1.30321 40.6022 0.922419C38.7404 0.565318 37.011 1.34269 36.0178 2.09989C34.9886 2.86323 34.5438 3.5748 34.4271 3.50022C34.3428 3.46512 34.6113 2.60878 35.637 1.64276C36.145 1.16546 36.8478 0.682889 37.7313 0.360006C38.607 0.032736 39.6783 -0.111157 40.7663 0.0976637C41.8621 0.323155 42.7869 0.902239 43.4441 1.57608C44.1039 2.25607 44.5224 3.0194 44.7172 3.70202C45.1199 5.0927 44.7286 5.96571 44.6531 5.92711Z" fill="black"/>
<path fill-rule="evenodd" clip-rule="evenodd" d="M80.9861 54.3017C80.6623 54.3017 80.3851 54.1929 80.1561 53.9753C79.928 53.7569 79.835 53.4928 79.8762 53.1786C79.9078 52.8645 80.0394 52.5794 80.278 52.3284C80.5167 52.074 80.7896 51.9468 81.0931 51.9468C81.4169 51.9468 81.6915 52.074 81.9205 52.3284C82.1487 52.5794 82.2417 52.8698 82.2004 53.1944C82.1715 53.4875 82.0346 53.7472 81.7907 53.9701C81.5494 54.1929 81.2792 54.3017 80.9861 54.3017Z" fill="#FFCC3B"/>
<path d="M82.0412 51.7801C81.4165 50.9588 80.4417 51.0685 79.5863 51.4484C78.6009 51.8924 78.1464 52.897 78.4298 53.9595C78.5474 54.4026 78.8238 54.6974 79.173 54.8835C80.2961 55.4845 81.6025 55.3906 82.243 54.2315C82.6686 53.4507 82.5957 52.5101 82.0412 51.7801Z" fill="black"/>
<path d="M81.4518 54.6005C81.1175 54.8514 80.5569 55.0857 80.1418 54.9076C79.1557 54.4838 78.9547 53.1256 79.9576 52.3728C80.4086 52.035 81.6457 51.7814 82.0353 52.4693C82.3169 52.9641 82.1002 54.1118 81.4518 54.6005ZM80.5016 53.6388C80.5823 53.9486 81.0649 54.0784 81.3711 53.7968C81.1921 53.8082 80.7841 53.8687 80.7253 53.5976C80.6595 53.2826 81.1395 53.2238 81.4755 53.1528C80.8797 52.7772 80.3893 53.2177 80.5016 53.6388Z" fill="#F18031"/>
<path d="M79.8727 52.2652C79.1041 52.8443 78.9681 53.8244 79.3138 54.478C78.4741 54.0929 78.5935 52.3995 79.4252 51.773C80.1938 51.1966 81.2458 51.229 81.7916 51.9941C81.2151 51.7265 80.4141 51.8616 79.8727 52.2652Z" fill="#A14F08"/>
</svg>
