<?xml version="1.0" standalone="no"?>
<!DOCTYPE svg PUBLIC "-//W3C//DTD SVG 20010904//EN"
 "http://www.w3.org/TR/2001/REC-SVG-20010904/DTD/svg10.dtd">
<svg version="1.0" xmlns="http://www.w3.org/2000/svg"
 width="608.000000pt" height="608.000000pt" viewBox="0 0 608.000000 608.000000"
 preserveAspectRatio="xMidYMid meet">
<metadata>
Created by potrace 1.11, written by Peter Selinger 2001-2013
</metadata>
<g transform="translate(0.000000,608.000000) scale(0.100000,-0.100000)"
fill="#000000" stroke="none">
<path d="M1948 5885 c-2 -2 -26 -5 -53 -9 -61 -7 -141 -33 -215 -71 -50 -25
-179 -108 -219 -141 -9 -7 -43 -33 -76 -58 -33 -24 -70 -54 -82 -65 -12 -12
-24 -21 -26 -21 -5 0 -56 -47 -167 -154 -67 -64 -230 -236 -230 -243 0 -3 -26
-34 -65 -77 -5 -6 -23 -29 -40 -51 -16 -22 -33 -44 -38 -50 -32 -40 -117 -165
-117 -174 0 -6 -4 -11 -8 -11 -5 0 -30 -37 -57 -82 -27 -46 -51 -85 -54 -88
-3 -3 -14 -21 -25 -40 -10 -19 -40 -75 -66 -125 -27 -49 -63 -126 -81 -170
-18 -44 -36 -84 -41 -89 -4 -6 -8 -16 -8 -24 0 -39 -115 -247 -164 -295 -34
-35 -62 -113 -71 -202 -9 -76 -19 -234 -17 -272 2 -68 40 -125 107 -161 23
-12 63 -16 170 -17 154 -2 196 -7 300 -36 118 -33 95 -27 305 -79 91 -22 179
-43 195 -46 17 -2 46 -9 65 -14 19 -5 53 -12 75 -16 22 -3 43 -8 47 -10 3 -2
30 -9 60 -15 29 -6 62 -12 73 -14 72 -15 113 -24 135 -29 14 -4 39 -9 55 -12
17 -3 50 -10 75 -16 25 -5 59 -12 77 -15 67 -10 87 -20 105 -51 10 -18 16 -32
14 -32 -2 0 14 -53 36 -117 21 -65 41 -125 43 -133 2 -8 12 -35 21 -60 9 -25
17 -52 19 -60 2 -8 27 -80 55 -160 28 -80 52 -152 54 -160 6 -25 41 -127 91
-265 26 -71 49 -141 52 -155 3 -14 9 -29 13 -35 4 -5 24 -59 45 -120 21 -60
42 -116 48 -123 5 -6 6 -12 3 -12 -4 0 -1 -10 6 -22 6 -13 13 -27 14 -33 2
-11 88 -232 111 -285 26 -60 31 -73 59 -140 14 -36 34 -83 44 -105 31 -70 53
-120 55 -125 9 -33 261 -535 280 -558 10 -12 1013 -19 1135 -8 30 3 87 8 125
12 94 8 124 11 165 18 51 8 129 17 180 21 25 2 79 11 120 19 41 8 86 17 100
20 159 29 405 105 422 130 4 6 8 8 8 3 0 -4 18 4 40 18 22 14 42 25 46 25 3 0
11 6 18 13 7 6 27 22 43 35 27 21 32 31 37 90 4 37 9 85 11 107 3 22 7 76 10
120 3 44 7 105 9 135 3 30 8 89 11 130 3 41 8 107 12 145 3 39 6 91 7 117 1
27 3 48 6 48 3 0 6 17 6 38 1 43 11 153 29 347 3 28 8 79 11 115 10 131 13
155 14 155 1 0 5 52 14 175 4 41 8 91 11 110 5 42 13 123 20 205 5 57 9 91 20
210 3 28 7 66 10 85 2 19 7 64 10 100 3 36 8 83 11 105 4 22 7 51 9 65 15 142
17 163 29 245 7 44 15 108 21 169 3 21 7 57 11 80 3 23 8 56 9 74 l4 34 -37
-7 c-20 -3 -45 -8 -54 -11 -15 -4 -14 4 8 68 14 40 27 78 28 83 3 11 11 31 31
85 36 95 47 126 50 140 2 8 17 52 33 97 16 45 27 84 24 88 -3 3 0 5 7 5 7 0
11 6 8 14 -3 7 -1 18 3 22 5 5 18 36 29 69 23 72 79 234 88 255 3 8 7 20 9 25
1 6 19 55 38 110 20 55 36 103 36 106 0 4 -26 13 -57 22 -144 38 -250 69 -268
77 -11 4 -32 11 -47 14 -25 6 -26 8 -17 39 6 17 12 39 14 47 9 33 43 146 50
162 4 11 0 20 -12 26 -16 8 -121 35 -183 46 -37 7 -70 15 -88 20 -9 3 -35 8
-57 12 -74 11 -75 12 -53 104 10 45 17 87 16 92 -2 6 -15 12 -29 13 -13 1 -37
5 -54 8 -16 3 -70 13 -120 21 -49 8 -108 18 -130 22 -81 13 -108 11 -111 -11
-1 -11 -6 -38 -9 -60 -4 -22 -9 -53 -11 -68 -2 -16 -13 -85 -25 -155 -29 -182
-35 -214 -49 -287 -6 -27 -13 -68 -15 -89 -3 -22 -7 -42 -10 -44 -2 -3 -17 11
-32 29 -58 71 -226 229 -243 229 -5 0 -10 4 -12 9 -4 12 -135 94 -207 131
-128 64 -335 132 -444 145 -18 2 -43 6 -57 10 -20 4 -153 15 -215 17 -74 2
-301 -20 -385 -38 -14 -2 -39 -6 -56 -8 -50 -6 -86 -18 -161 -55 -35 -16 -113
-87 -113 -102 0 -4 -19 -8 -42 -8 -46 1 -129 -16 -158 -31 -15 -8 -26 8 -83
123 -66 134 -112 234 -117 252 -6 24 -85 165 -92 165 -4 0 -8 6 -8 13 0 12
-78 99 -111 122 -35 27 -109 54 -166 63 -35 5 -64 8 -65 7z"/>
</g>
</svg>
